<?xml version="1.0" encoding="UTF-8" standalone="no"?>
<!-- Created with Inkscape (http://www.inkscape.org/) -->

<svg
   xmlns:dc="http://purl.org/dc/elements/1.1/"
   xmlns:cc="http://creativecommons.org/ns#"
   xmlns:rdf="http://www.w3.org/1999/02/22-rdf-syntax-ns#"
   xmlns:svg="http://www.w3.org/2000/svg"
   xmlns="http://www.w3.org/2000/svg"
   xmlns:xlink="http://www.w3.org/1999/xlink"
   xmlns:sodipodi="http://sodipodi.sourceforge.net/DTD/sodipodi-0.dtd"
   xmlns:inkscape="http://www.inkscape.org/namespaces/inkscape"
   width="596.34808"
   height="615.99274"
   id="svg2"
   version="1.1"
   inkscape:version="0.48.5 r10040"
   viewBox="0 0 596.34807 615.99275"
   sodipodi:docname="mapa3.svg">
  <defs
     id="defs4">
    <linearGradient
       id="linearGradient5888">
      <stop
         style="stop-color:#aaaaaa;stop-opacity:1;"
         offset="0"
         id="stop5890" />
      <stop
         style="stop-color:#aaaaaa;stop-opacity:0;"
         offset="1"
         id="stop5892" />
    </linearGradient>
  </defs>
  <sodipodi:namedview
     id="base"
     pagecolor="#ffffff"
     bordercolor="#666666"
     borderopacity="1.0"
     inkscape:pageopacity="0.0"
     inkscape:pageshadow="2"
     inkscape:zoom="1"
     inkscape:cx="393.66737"
     inkscape:cy="275.74684"
     inkscape:document-units="px"
     inkscape:current-layer="layer1"
     showgrid="false"
     inkscape:window-width="1920"
     inkscape:window-height="1025"
     inkscape:window-x="-2"
     inkscape:window-y="-3"
     inkscape:window-maximized="1"
     fit-margin-top="0"
     fit-margin-left="0"
     fit-margin-right="0"
     fit-margin-bottom="0" />
  <metadata
     id="metadata7">
    <rdf:RDF>
      <cc:Work
         rdf:about="">
        <dc:format>image/svg+xml</dc:format>
        <dc:type
           rdf:resource="http://purl.org/dc/dcmitype/StillImage" />
        <dc:title></dc:title>
      </cc:Work>
    </rdf:RDF>
  </metadata>
  <g
     inkscape:label="Capa 1"
     inkscape:groupmode="layer"
     id="layer1"
     transform="translate(-72.223355,-96.798019)">
    <flowRoot
       xml:space="preserve"
       id="flowRoot4335"
       style="font-size:40px;font-style:normal;font-weight:normal;line-height:125%;letter-spacing:0px;word-spacing:0px;fill:#000000;fill-opacity:1;stroke:none;font-family:Sans"><flowRegion
         id="flowRegion4337"><rect
           id="rect4339"
           width="27.274118"
           height="48.487324"
           x="127.27922"
           y="255.35182" /></flowRegion><flowPara
         id="flowPara4341" /></flowRoot>    <flowRoot
       xml:space="preserve"
       id="flowRoot5003"
       style="fill:black;stroke:none;stroke-opacity:1;stroke-width:1px;stroke-linejoin:miter;stroke-linecap:butt;fill-opacity:1;font-family:Sans;font-style:normal;font-weight:normal;font-size:40px;line-height:125%;letter-spacing:0px;word-spacing:0px"><flowRegion
         id="flowRegion5005"><rect
           id="rect5007"
           width="448.50772"
           height="216.17264"
           x="700.03571"
           y="-112.32724" /></flowRegion><flowPara
         id="flowPara5009" /></flowRoot>    <a
       transform="matrix(0.26725241,0,0,0.26725241,244.84932,316.15521)"
       target="_parent"
       xlink:href="http://equipo.reevo.org/projects/coordinacion-general"
       id="a3674">
      <g
         id="g3676"
         transform="translate(-2.0507242,29.735494)" />
    </a>
    <g
       id="g7384"
       transform="matrix(1.0870411,0,0,1.0870411,-54.954802,-41.45549)">
      <path
         style="fill:#abdf4f;fill-opacity:1;stroke:none"
         d="m 306.08772,557.85991 -33.4375,60.3125 c 22.07279,12.23515 45.94541,20.93455 70.71875,25.75 l 13.1875,-67.8125 c -17.98351,-3.42453 -34.95833,-9.66905 -50.46875,-18.25 z"
         id="path7386"
         inkscape:connector-curvature="0" />
      <path
         style="fill:#73b84d;fill-opacity:1;stroke:none"
         d="m 416.02517,576.95366 c -8.8865,1.42525 -17.993,2.1875 -27.2812,2.1875 -8.95232,0 -17.73152,-0.70535 -26.3125,-2.03125 l -10.8125,68.25 c 24.92631,3.94794 50.3237,3.94794 75.25,0 l -10.8438,-68.40625 z"
         id="path7388"
         inkscape:connector-curvature="0" />
      <path
         style="fill:#497739;fill-opacity:1;stroke:none"
         d="m 472.15017,557.42241 c -15.4358,8.64232 -32.3332,14.98021 -50.25,18.5 l 13.2188,68 c 24.7733,-4.81545 48.646,-13.51485 70.7188,-25.75 l -33.6876,-60.75 z"
         id="path7390"
         inkscape:connector-curvature="0" />
      <path
         style="fill:#302a70;fill-opacity:1;stroke:none"
         d="m 559.71277,410.79741 c -0.2808,18.38084 -3.4815,36.057 -9.125,52.59375 l 66.0624,22.75 c 8.2164,-23.86207 12.6221,-48.89183 13.0626,-74.125 l -70,-1.21875 z"
         id="path7392"
         inkscape:connector-curvature="0" />
      <path
         style="fill:#261758;fill-opacity:1;stroke:none"
         d="m 616.65017,329.54741 -66.25,22.8125 c 5.6923,16.50123 8.9663,34.14756 9.3126,52.5 l 70,-1.21875 c -0.4405,-25.23317 -4.8462,-50.23168 -13.0626,-74.09375 z"
         id="path7394"
         inkscape:connector-curvature="0" />
      <path
         style="fill:#251556;fill-opacity:1;stroke:none"
         d="m 576.15017,256.48491 -54.4687,44.09375 c 11.1602,13.77837 20.2108,29.32554 26.6875,46.15625 l 65.4062,-25.09375 c -9.0441,-23.56079 -21.7428,-45.5434 -37.625,-65.15625 z"
         id="path7396"
         inkscape:connector-curvature="0" />
      <path
         style="fill:#a50863;fill-opacity:1;stroke:none"
         d="m 435.11897,171.76616 -13.3125,68.5625 c 17.8553,3.49723 34.6981,9.78897 50.0937,18.375 l 33.9376,-61.21875 c -22.0728,-12.23514 -45.9455,-20.9033 -70.7188,-25.71875 z"
         id="path7398"
         inkscape:connector-curvature="0" />
      <path
         style="fill:#b71721;fill-opacity:1;stroke:none"
         d="m 389.24397,167.32866 c -12.57967,0 -25.16185,0.99478 -37.625,2.96875 l 10.90625,68.84375 c 8.55058,-1.31622 17.29978,-2 26.21875,-2 9.2553,0 18.3309,0.74089 27.1875,2.15625 l 10.9375,-69 c -12.4632,-1.97396 -25.0453,-2.96875 -37.625,-2.96875 z"
         id="path7400"
         inkscape:connector-curvature="0" />
      <path
         style="fill:#d90921;fill-opacity:1;stroke:none"
         d="m 343.36897,171.76616 c -24.77334,4.81545 -48.64596,13.48361 -70.71875,25.71875 l 33.6875,60.78125 c 0.11474,-0.0632 0.22885,-0.12453 0.34375,-0.1875 0.73436,-0.40251 1.47789,-0.79551 2.21875,-1.1875 0.17721,-0.0937 0.35368,-0.18811 0.53125,-0.28125 0.82867,-0.43471 1.66339,-0.8598 2.5,-1.28125 0.89558,-0.4512 1.78304,-0.90793 2.6875,-1.34375 0.18928,-0.0912 0.37283,-0.19072 0.5625,-0.28125 0.47469,-0.22657 0.96041,-0.43395 1.4375,-0.65625 0.53011,-0.24698 1.06071,-0.47706 1.59375,-0.71875 0.96455,-0.43734 1.93224,-0.8614 2.90625,-1.28125 0.0729,-0.0314 0.14583,-0.0624 0.21875,-0.0937 0.50048,-0.2149 0.99707,-0.446 1.5,-0.65625 0.86858,-0.36319 1.74923,-0.71332 2.625,-1.0625 0.39452,-0.15729 0.79154,-0.31432 1.1875,-0.46875 0.74521,-0.29062 1.49976,-0.56334 2.25,-0.84375 0.56256,-0.21028 1.12215,-0.4205 1.6875,-0.625 1.10303,-0.39903 2.19904,-0.81066 3.3125,-1.1875 0.26801,-0.0907 0.54389,-0.1606 0.8125,-0.25 1.05976,-0.35276 2.1186,-0.6988 3.1875,-1.03125 0.74781,-0.23259 1.49783,-0.46494 2.25,-0.6875 0.17652,-0.0522 0.35449,-0.10459 0.53125,-0.15625 0.71906,-0.21022 1.4333,-0.42401 2.15625,-0.625 0.48603,-0.13511 0.98097,-0.24408 1.46875,-0.375 0.79225,-0.21262 1.57825,-0.42352 2.375,-0.625 1.1466,-0.29001 2.28173,-0.57703 3.4375,-0.84375 1.3729,-0.31683 2.77079,-0.62269 4.15625,-0.90625 0.78968,-0.16159 1.5814,-0.31809 2.375,-0.46875 l -13.28125,-68.375 z"
         id="path7402"
         inkscape:connector-curvature="0" />
      <path
         style="fill:#f86730;fill-opacity:1;stroke:none"
         d="m 265.36897,201.67241 c -21.63235,12.99802 -41.06803,29.32838 -57.625,48.375 l 52.3125,45.46875 c 11.79071,-13.46055 25.6788,-25.05379 41.125,-34.28125 l -35.8125,-59.5625 z"
         id="path7404"
         inkscape:connector-curvature="0" />
      <path
         style="fill:#fd9029;fill-opacity:1;stroke:none"
         d="m 202.33772,256.48491 c -15.88217,19.61284 -28.58086,41.59547 -37.625,65.15625 l 64.53125,24.78125 c 6.54421,-16.9062 15.69878,-32.50071 26.96875,-46.3125 l -53.875,-43.625 z"
         id="path7406"
         inkscape:connector-curvature="0" />
      <path
         style="fill:#ffb22a;fill-opacity:1;stroke:none"
         d="m 161.83772,329.54741 c -8.21637,23.86207 -12.62205,48.86058 -13.0625,74.09375 l 69,1.1875 c 0.35146,-18.45522 3.65121,-36.20119 9.40625,-52.78125 l -65.34375,-22.5 z"
         id="path7408"
         inkscape:connector-curvature="0" />
      <path
         style="fill:#ffcf1f;fill-opacity:1;stroke:none"
         d="m 217.77522,410.82866 -69,1.1875 c 0.44045,25.23317 4.84613,50.26293 13.0625,74.125 l 65.15625,-22.4375 c -5.70662,-16.61639 -8.93314,-34.39049 -9.21875,-52.875 z"
         id="path7410"
         inkscape:connector-curvature="0" />
      <path
         style="fill:#fee41b;fill-opacity:1;stroke:none"
         d="m 229.05647,469.32866 -64.34375,24.6875 c 9.04414,23.56078 21.74283,45.54341 37.625,65.15625 l 53.5625,-43.375 c -11.24597,-13.85853 -20.3434,-29.51795 -26.84375,-46.46875 z"
         id="path7412"
         inkscape:connector-curvature="0" />
      <path
         style="fill:#dcf331;fill-opacity:1;stroke:none"
         d="m 259.74397,520.39116 -52,45.21875 c 16.55697,19.04662 35.99265,35.37698 57.625,48.375 l 35.53125,-59.125 c -15.46915,-9.28289 -29.37064,-20.93697 -41.15625,-34.46875 z"
         id="path7414"
         inkscape:connector-curvature="0" />
      <path
         style="fill:#2d5672;fill-opacity:1;stroke:none"
         d="m 518.18147,519.92241 c -11.6859,13.51846 -25.4915,25.18037 -40.8437,34.5 l 35.7812,59.5625 c 21.6323,-12.99802 41.068,-29.32838 57.625,-48.375 l -52.5625,-45.6875 z"
         id="path7416"
         inkscape:connector-curvature="0" />
      <path
         style="fill:#275374;fill-opacity:1;stroke:none"
         d="m 548.58777,468.98491 c -6.4335,16.88816 -15.4818,32.4782 -26.625,46.3125 l 54.1874,43.875 c 15.8822,-19.61284 28.5809,-41.59547 37.625,-65.15625 l -65.1874,-25.03125 z"
         id="path7418"
         inkscape:connector-curvature="0" />
      <path
         style="fill:#37185c;fill-opacity:1;stroke:none"
         d="m 513.11897,201.67241 -36.0625,60 c 15.3361,9.26825 29.1181,20.88895 40.8125,34.34375 l 52.875,-45.96875 c -16.557,-19.04662 -35.9927,-35.37698 -57.625,-48.375 z"
         id="path7420"
         inkscape:connector-curvature="0" />
    </g>
    <a
       style="fill:#ffffff;fill-opacity:1"
       id="a7422"
       xlink:href="http://equipo.reevo.org/projects/equipo"
       target="_parent"
       transform="matrix(0.32192043,0,0,0.32192043,815.63823,253.17773)">
      <path
         transform="matrix(11.727971,0,0,12.881542,-12720.536,-4149.0021)"
         d="m 1033,357.99274 c 0,33.68937 -29.9969,61 -67,61 -37.00308,0 -67,-27.31063 -67,-61 0,-33.68937 29.99692,-61 67,-61 37.0031,0 67,27.31063 67,61 z"
         sodipodi:ry="61"
         sodipodi:rx="67"
         sodipodi:cy="357.99274"
         sodipodi:cx="966"
         id="path7424"
         style="fill:#ffffff;fill-opacity:1;stroke:none"
         sodipodi:type="arc" />
    </a>
    <a
       style="fill:#666666;fill-opacity:1"
       transform="matrix(0.31296311,0,0,0.31296311,803.30566,257.19056)"
       target="_parent"
       xlink:href="http://equipo.reevo.org/projects/equipo"
       id="a7426">
      <path
         sodipodi:type="arc"
         style="fill:#666666;fill-opacity:1;stroke:none"
         id="path7428"
         sodipodi:cx="966"
         sodipodi:cy="357.99274"
         sodipodi:rx="67"
         sodipodi:ry="61"
         d="m 1033,357.99274 c 0,33.68937 -29.9969,61 -67,61 -37.00308,0 -67,-27.31063 -67,-61 0,-33.68937 29.99692,-61 67,-61 37.0031,0 67,27.31063 67,61 z"
         transform="matrix(11.727971,0,0,12.881542,-12720.536,-4149.0021)" />
    </a>
    <a
       style="fill:#ffffff;fill-opacity:1"
       id="a7430"
       xlink:href="http://equipo.reevo.org/projects/equipo"
       target="_parent"
       transform="matrix(0.25553091,0,0,0.25553091,724.92565,284.71068)">
      <path
         transform="matrix(11.727971,0,0,12.881542,-12720.536,-4149.0021)"
         d="m 1033,357.99274 c 0,33.68937 -29.9969,61 -67,61 -37.00308,0 -67,-27.31063 -67,-61 0,-33.68937 29.99692,-61 67,-61 37.0031,0 67,27.31063 67,61 z"
         sodipodi:ry="61"
         sodipodi:rx="67"
         sodipodi:cy="357.99274"
         sodipodi:cx="966"
         id="path7432"
         style="fill:#ffffff;fill-opacity:1;stroke:none"
         sodipodi:type="arc" />
    </a>
    <a
       transform="matrix(0.86359486,0,0,0.86359486,77.319871,27.135992)"
       target="_parent"
       xlink:href="http://equipo.reevo.org/projects/desarrollo"
       id="a7434">
      <g
         transform="translate(-21.094497,-128.48466)"
         id="g7436">
        <path
           id="path7438"
           d="m 475.17694,371.08495 -43.0955,71.6988 c 39.5279,24.66101 65.9723,68.32665 66.4866,118.22674 l 85.38607,-1.48313 C 582.60352,482.15423 541.50884,410.94113 475.17694,371.08495 z"
           style="fill:#6600cc;fill-opacity:1;stroke:none"
           inkscape:connector-curvature="0" />
        <g
           inkscape:transform-center-y="7.0710678"
           inkscape:transform-center-x="10.606602"
           transform="matrix(0.53954649,0.84195581,-0.84195581,0.53954649,601.23127,-274.64254)"
           id="g7440"
           style="font-size:30.32894707px;font-style:normal;font-variant:normal;font-weight:300;font-stretch:normal;text-align:center;line-height:100%;letter-spacing:0px;word-spacing:0px;writing-mode:lr-tb;text-anchor:middle;fill:#eeeeee;fill-opacity:1;stroke:none;font-family:Pathway Gothic One;-inkscape-font-specification:'Pathway Gothic One, Light'">
          <path
             inkscape:connector-curvature="0"
             id="path7442"
             d="m 521.39073,472.2023 0,-9.61427 -4.57967,0 0,9.61427 -2.42631,0 0,-21.23026 2.42631,0 0,9.67493 4.57967,0 0,-9.67493 2.39599,0 0,21.23026 -2.39599,0 z" />
          <path
             inkscape:connector-curvature="0"
             id="path7444"
             d="m 530.02074,462.58803 0,7.67322 5.27724,0 0,1.94105 -7.70355,0 0,-21.23026 7.61256,0 0,1.94105 -5.18625,0 0,7.73388 4.73132,0 0,1.94106 -4.73132,0 z" />
          <path
             inkscape:connector-curvature="0"
             id="path7446"
             d="m 538.49389,472.2023 0,-21.23026 3.76079,0 q 2.24434,0 3.48783,1.42546 1.24349,1.42546 1.24349,5.12559 l 0,0.15165 q 0,4.61 -2.24435,5.85348 l 2.51731,8.67408 -2.48698,0 -2.36566,-8.12815 -1.48611,0 0,8.12815 -2.42632,0 z m 6.09612,-14.22427 0,-0.90987 q 0,-2.33533 -0.63691,-3.2452 -0.60658,-0.90987 -1.69842,-0.90987 l -1.33447,0 0,9.25033 1.33447,0 q 2.33533,0 2.33533,-4.18539 z" />
          <path
             inkscape:connector-curvature="0"
             id="path7448"
             d="m 550.22266,472.2023 0,-21.23026 3.76079,0 q 2.24434,0 3.48783,1.42546 1.24349,1.42546 1.24349,5.12559 l 0,0.15165 q 0,4.61 -2.24435,5.85348 l 2.51731,8.67408 -2.48698,0 -2.36565,-8.12815 -1.48612,0 0,8.12815 -2.42632,0 z m 6.09612,-14.22427 0,-0.90987 q 0,-2.33533 -0.63691,-3.2452 -0.60658,-0.90987 -1.69842,-0.90987 l -1.33447,0 0,9.25033 1.33447,0 q 2.33533,0 2.33533,-4.18539 z" />
          <path
             inkscape:connector-curvature="0"
             id="path7450"
             d="m 569.07874,472.2023 -0.9402,-5.51987 -4.27638,0 -0.90987,5.51987 -2.42631,0 3.8821,-21.23026 3.21487,0 3.8821,21.23026 -2.42631,0 z m -3.06323,-18.16704 -1.81973,10.70612 3.60914,0 -1.78941,-10.70612 z" />
          <path
             inkscape:connector-curvature="0"
             id="path7452"
             d="m 576.28281,472.2023 -2.36566,0 0,-21.23026 3.70013,0 2.57797,14.70954 2.60828,-14.70954 3.70014,0 0,21.23026 -2.36566,0 0,-19.16789 -2.57796,14.61855 -2.69928,0 -2.57796,-14.61855 0,19.16789 z" />
          <path
             inkscape:connector-curvature="0"
             id="path7454"
             d="m 590.32559,472.2023 0,-21.23026 2.42631,0 0,21.23026 -2.42631,0 z" />
          <path
             inkscape:connector-curvature="0"
             id="path7456"
             d="m 598.97171,462.58803 0,7.67322 5.27723,0 0,1.94105 -7.70355,0 0,-21.23026 7.61257,0 0,1.94105 -5.18625,0 0,7.73388 4.73131,0 0,1.94106 -4.73131,0 z" />
          <path
             inkscape:connector-curvature="0"
             id="path7458"
             d="m 609.81051,472.2023 -2.36566,0 0,-21.23026 2.5173,0 4.94362,15.52842 0,-15.52842 2.36566,0 0,21.23026 -2.5173,0 -4.94362,-15.49809 0,15.49809 z" />
          <path
             inkscape:connector-curvature="0"
             id="path7460"
             d="m 619.55274,452.91309 0,-1.94105 8.2798,0 0,1.94105 -2.9419,0 0,19.28921 -2.39599,0 0,-19.28921 -2.94191,0 z" />
          <path
             inkscape:connector-curvature="0"
             id="path7462"
             d="m 636.38011,472.2023 -0.94019,-5.51987 -4.27638,0 -0.90987,5.51987 -2.42632,0 3.88211,-21.23026 3.21487,0 3.8821,21.23026 -2.42632,0 z m -3.06322,-18.16704 -1.81974,10.70612 3.60915,0 -1.78941,-10.70612 z" />
          <path
             inkscape:connector-curvature="0"
             id="path7464"
             d="m 647.73925,467.44066 q 0,-2.42632 -1.63776,-3.73046 l -2.42632,-1.78941 q -2.7296,-1.94105 -2.7296,-5.73217 0,-3.15421 1.18282,-4.3977 1.21316,-1.27381 3.27553,-1.27381 2.0927,0 3.2452,1.18283 1.1525,1.1525 1.39513,4.21572 l -2.305,0.51559 q -0.12132,-3.8821 -2.27467,-3.8821 -2.12303,0 -2.12303,3.30585 0,1.45579 0.30329,2.36566 0.33362,0.90987 1.24349,1.63776 l 2.39599,1.78941 q 0.84921,0.60658 1.3648,1.1525 0.51559,0.54592 0.97052,1.75908 0.48527,1.18283 0.48527,2.82059 0,2.91158 -1.27382,4.09441 -1.24349,1.18283 -3.39684,1.18283 -2.15336,0 -3.36651,-1.39513 -1.21316,-1.39514 -1.48612,-4.97395 l 2.27467,-0.39428 q 0.12131,2.57796 0.72789,3.6698 0.63691,1.09185 1.75908,1.09185 2.39599,0 2.39599,-3.21487 z" />
          <path
             inkscape:connector-curvature="0"
             id="path7466"
             d="m 573.19353,502.53125 -2.5173,-15.43743 -2.5173,15.43743 -2.48697,0 -3.18454,-21.23026 2.42631,0 2.18369,16.25631 2.66894,-16.25631 1.8804,0 2.57796,16.22598 2.21401,-16.22598 2.42632,0 -3.18454,21.23026 -2.48698,0 z" />
          <path
             inkscape:connector-curvature="0"
             id="path7468"
             d="m 583.78213,492.91697 0,7.67323 5.27723,0 0,1.94105 -7.70355,0 0,-21.23026 7.61257,0 0,1.94105 -5.18625,0 0,7.73388 4.73131,0 0,1.94105 -4.73131,0 z" />
          <path
             inkscape:connector-curvature="0"
             id="path7470"
             d="m 592.25528,502.53125 0,-21.23026 3.4575,0 q 2.27467,0 3.48783,1.27381 1.24348,1.27382 1.24348,4.45836 0,3.70013 -2.57796,4.54934 3.0329,0.66724 3.0329,4.88296 0,3.36651 -1.24349,4.73132 -1.24349,1.33447 -3.4575,1.33447 l -3.94276,0 z m 6.27809,-5.48954 0,-0.81888 q 0,-3.79112 -2.39599,-3.79112 l -1.45579,0 0,8.18882 1.45579,0 q 1.1525,0 1.75908,-0.78856 0.63691,-0.78855 0.63691,-2.79026 z m -0.33362,-9.76592 0,-0.72789 q 0,-1.91073 -0.60658,-2.60829 -0.60658,-0.7279 -1.72875,-0.7279 l -1.18283,0 0,7.61257 1.18283,0 q 2.33533,0 2.33533,-3.54849 z" />
        </g>
      </g>
    </a>
    <a
       transform="matrix(0.86359486,0,0,0.86359486,109.74303,-101.26929)"
       target="_parent"
       xlink:href="http://equipo.reevo.org/projects/financiamiento"
       id="a7472">
      <g
         id="g7474">
        <path
           id="path7476"
           d="M 185.29646,391.28657 C 118.96466,431.14274 77.869962,502.35585 76.519362,579.72897 l 81.317998,1.39838 c 0.5569,-51.10983 28.2996,-95.68271 69.4529,-119.96412 l -41.9938,-69.87666 z"
           style="fill:#fb8b00;fill-opacity:1;stroke:none"
           inkscape:connector-curvature="0" />
        <g
           transform="matrix(0.58054725,-0.81422656,0.81422656,0.58054725,-345.47505,365.39897)"
           id="g7478"
           style="font-size:30.32894707px;font-style:normal;font-variant:normal;font-weight:300;font-stretch:normal;text-align:center;line-height:100%;letter-spacing:0px;word-spacing:0px;writing-mode:lr-tb;text-anchor:middle;fill:#eeeeee;fill-opacity:1;stroke:none;font-family:Pathway Gothic One;-inkscape-font-specification:'Pathway Gothic One, Light'">
          <path
             inkscape:connector-curvature="0"
             id="path7480"
             d="m 129.45085,468.97281 0,-21.23026 3.76079,0 q 2.24434,0 3.48783,1.42546 1.24348,1.42546 1.24348,5.12559 l 0,0.15164 q 0,4.61 -2.24434,5.85349 l 2.5173,8.67408 -2.48697,0 -2.36566,-8.12816 -1.48612,0 0,8.12816 -2.42631,0 z m 6.09612,-14.22428 0,-0.90987 q 0,-2.33532 -0.63691,-3.24519 -0.60658,-0.90987 -1.69842,-0.90987 l -1.33448,0 0,9.25033 1.33448,0 q 2.33533,0 2.33533,-4.1854 z" />
          <path
             inkscape:connector-curvature="0"
             id="path7482"
             d="m 143.60594,459.35853 0,7.67323 5.27723,0 0,1.94105 -7.70355,0 0,-21.23026 7.61257,0 0,1.94105 -5.18625,0 0,7.73388 4.73131,0 0,1.94105 -4.73131,0 z" />
          <path
             inkscape:connector-curvature="0"
             id="path7484"
             d="m 154.05047,463.11932 q 0,2.48698 0.57625,3.42717 0.57625,0.90987 1.63776,0.90987 1.06151,0 1.57711,-0.78855 0.54592,-0.81888 0.72789,-3.06322 l 2.12303,0.27296 q -0.27296,3.09355 -1.39513,4.33704 -1.09185,1.21315 -3.15421,1.21315 -2.06237,0 -3.27553,-1.48612 -1.21316,-1.48611 -1.21316,-5.45921 l 0,-8.24947 q 0,-3.97309 1.21316,-5.45921 1.21316,-1.48612 3.2452,-1.48612 2.06237,0 3.12388,1.06151 1.09184,1.06152 1.33447,3.79112 l -2.21401,0.54592 q -0.18197,-1.94105 -0.69757,-2.66894 -0.48526,-0.75823 -1.48612,-0.75823 -0.97052,0 -1.54677,0.97053 -0.57625,0.9402 -0.57625,3.48783 l 0,9.40197 z" />
          <path
             inkscape:connector-curvature="0"
             id="path7486"
             d="m 170.18689,447.74255 2.39599,0 0,14.89151 q 0,3.85178 -1.24349,5.33789 -1.21316,1.45579 -3.4575,1.45579 -2.24434,0 -3.48783,-1.45579 -1.21316,-1.48611 -1.21316,-5.33789 l 0,-14.89151 2.39599,0 0,15.34644 q 0,2.45665 0.60658,3.42717 0.60658,0.9402 1.66809,0.9402 1.09184,0 1.69842,-0.9402 0.63691,-0.97052 0.63691,-3.42717 l 0,-15.34644 z" />
          <path
             inkscape:connector-curvature="0"
             id="path7488"
             d="m 176.18823,468.97281 0,-21.23026 3.76079,0 q 2.24434,0 3.48783,1.42546 1.24348,1.42546 1.24348,5.12559 l 0,0.15164 q 0,4.61 -2.24434,5.85349 l 2.51731,8.67408 -2.48698,0 -2.36566,-8.12816 -1.48611,0 0,8.12816 -2.42632,0 z m 6.09612,-14.22428 0,-0.90987 q 0,-2.33532 -0.63691,-3.24519 -0.60658,-0.90987 -1.69842,-0.90987 l -1.33447,0 0,9.25033 1.33447,0 q 2.33533,0 2.33533,-4.1854 z" />
          <path
             inkscape:connector-curvature="0"
             id="path7490"
             d="m 194.43773,464.21116 q 0,-2.42631 -1.63777,-3.73046 l -2.42631,-1.7894 q -2.72961,-1.94106 -2.72961,-5.73218 0,-3.15421 1.18283,-4.39769 1.21316,-1.27382 3.27553,-1.27382 2.0927,0 3.2452,1.18283 1.1525,1.1525 1.39513,4.21572 l -2.305,0.5156 q -0.12132,-3.88211 -2.27467,-3.88211 -2.12303,0 -2.12303,3.30586 0,1.45579 0.30329,2.36565 0.33362,0.90987 1.24349,1.63777 l 2.39598,1.78941 q 0.84921,0.60657 1.36481,1.1525 0.51559,0.54592 0.97052,1.75907 0.48527,1.18283 0.48527,2.8206 0,2.91158 -1.27382,4.0944 -1.24349,1.18283 -3.39684,1.18283 -2.15336,0 -3.36652,-1.39513 -1.21315,-1.39513 -1.48611,-4.97395 l 2.27467,-0.39427 q 0.12131,2.57796 0.72789,3.6698 0.63691,1.09184 1.75908,1.09184 2.39599,0 2.39599,-3.21487 z" />
          <path
             inkscape:connector-curvature="0"
             id="path7492"
             d="m 209.06955,454.0813 0,8.55276 q 0,3.85178 -1.24349,5.33789 -1.21315,1.45579 -3.51815,1.45579 -2.27468,0 -3.51816,-1.45579 -1.21316,-1.48611 -1.21316,-5.33789 l 0,-8.55276 q 0,-3.85178 1.21316,-5.30757 1.24348,-1.48612 3.51816,-1.48612 2.305,0 3.51815,1.48612 1.24349,1.45579 1.24349,5.30757 z m -2.39599,9.00769 0,-9.46263 q 0,-4.36737 -2.33533,-4.36737 -1.12217,0 -1.75907,0.9402 -0.60658,0.9402 -0.60658,3.42717 l 0,9.46263 q 0,2.48698 0.60658,3.42717 0.6369,0.9402 1.75907,0.9402 2.33533,0 2.33533,-4.36737 z" />
          <path
             inkscape:connector-curvature="0"
             id="path7494"
             d="m 218.96152,464.21116 q 0,-2.42631 -1.63776,-3.73046 l -2.42631,-1.7894 q -2.72961,-1.94106 -2.72961,-5.73218 0,-3.15421 1.18283,-4.39769 1.21316,-1.27382 3.27553,-1.27382 2.09269,0 3.24519,1.18283 1.1525,1.1525 1.39513,4.21572 l -2.305,0.5156 q -0.12131,-3.88211 -2.27467,-3.88211 -2.12302,0 -2.12302,3.30586 0,1.45579 0.30329,2.36565 0.33361,0.90987 1.24348,1.63777 l 2.39599,1.78941 q 0.84921,0.60657 1.3648,1.1525 0.51559,0.54592 0.97053,1.75907 0.48526,1.18283 0.48526,2.8206 0,2.91158 -1.27381,4.0944 -1.24349,1.18283 -3.39685,1.18283 -2.15335,0 -3.36651,-1.39513 -1.21316,-1.39513 -1.48612,-4.97395 l 2.27467,-0.39427 q 0.12132,2.57796 0.7279,3.6698 0.63691,1.09184 1.75908,1.09184 2.39598,0 2.39598,-3.21487 z" />
          <path
             inkscape:connector-curvature="0"
             id="path7496"
             d="m 233.85209,468.97281 -2.36566,0 0,-7.09697 -4.00342,-14.13329 2.36565,0 2.8206,10.94875 2.79026,-10.94875 2.36566,0 -3.97309,14.13329 0,7.09697 z" />
          <path
             inkscape:connector-curvature="0"
             id="path7498"
             d="m 123.1102,489.68748 0,9.61428 -2.42631,0 0,-21.23027 7.27894,0 0,1.94106 -4.85263,0 0,7.73388 4.3977,0 0,1.94105 -4.3977,0 z" />
          <path
             inkscape:connector-curvature="0"
             id="path7500"
             d="m 130.45786,499.30176 0,-21.23027 2.42632,0 0,21.23027 -2.42632,0 z" />
          <path
             inkscape:connector-curvature="0"
             id="path7502"
             d="m 139.04333,499.30176 -2.36566,0 0,-21.23027 2.5173,0 4.94362,15.52842 0,-15.52842 2.36566,0 0,21.23027 -2.51731,0 -4.94361,-15.4981 0,15.4981 z" />
          <path
             inkscape:connector-curvature="0"
             id="path7504"
             d="m 157.4293,499.30176 -0.9402,-5.51987 -4.27638,0 -0.90987,5.51987 -2.42631,0 3.8821,-21.23027 3.21487,0 3.88211,21.23027 -2.42632,0 z m -3.06322,-18.16704 -1.81974,10.70611 3.60915,0 -1.78941,-10.70611 z" />
          <path
             inkscape:connector-curvature="0"
             id="path7506"
             d="m 164.63338,499.30176 -2.36566,0 0,-21.23027 2.5173,0 4.94362,15.52842 0,-15.52842 2.36566,0 0,21.23027 -2.5173,0 -4.94362,-15.4981 0,15.4981 z" />
          <path
             inkscape:connector-curvature="0"
             id="path7508"
             d="m 177.86343,493.44827 q 0,2.48697 0.57625,3.42717 0.57625,0.90987 1.63776,0.90987 1.06152,0 1.57711,-0.78855 0.54592,-0.81889 0.72789,-3.06323 l 2.12303,0.27296 q -0.27296,3.09356 -1.39513,4.33704 -1.09185,1.21316 -3.15421,1.21316 -2.06237,0 -3.27553,-1.48612 -1.21316,-1.48612 -1.21316,-5.45921 l 0,-8.24947 q 0,-3.97309 1.21316,-5.45921 1.21316,-1.48612 3.2452,-1.48612 2.06237,0 3.12388,1.06151 1.09184,1.06152 1.33447,3.79112 l -2.21401,0.54592 q -0.18197,-1.94105 -0.69757,-2.66895 -0.48526,-0.75822 -1.48611,-0.75822 -0.97053,0 -1.54678,0.97053 -0.57625,0.94019 -0.57625,3.48783 l 0,9.40197 z" />
          <path
             inkscape:connector-curvature="0"
             id="path7510"
             d="m 187.20616,499.30176 0,-21.23027 2.42632,0 0,21.23027 -2.42632,0 z" />
          <path
             inkscape:connector-curvature="0"
             id="path7512"
             d="m 200.55327,499.30176 -0.9402,-5.51987 -4.27638,0 -0.90987,5.51987 -2.42631,0 3.8821,-21.23027 3.21487,0 3.88211,21.23027 -2.42632,0 z m -3.06322,-18.16704 -1.81974,10.70611 3.60914,0 -1.7894,-10.70611 z" />
          <path
             inkscape:connector-curvature="0"
             id="path7514"
             d="m 207.36307,493.44827 q 0,2.48697 0.57625,3.42717 0.57625,0.90987 1.63776,0.90987 1.06152,0 1.57711,-0.78855 0.54592,-0.81889 0.72789,-3.06323 l 2.12303,0.27296 q -0.27296,3.09356 -1.39513,4.33704 -1.09184,1.21316 -3.15421,1.21316 -2.06237,0 -3.27553,-1.48612 -1.21316,-1.48612 -1.21316,-5.45921 l 0,-8.24947 q 0,-3.97309 1.21316,-5.45921 1.21316,-1.48612 3.2452,-1.48612 2.06237,0 3.12388,1.06151 1.09184,1.06152 1.33447,3.79112 l -2.21401,0.54592 q -0.18197,-1.94105 -0.69756,-2.66895 -0.48527,-0.75822 -1.48612,-0.75822 -0.97053,0 -1.54678,0.97053 -0.57625,0.94019 -0.57625,3.48783 l 0,9.40197 z" />
          <path
             inkscape:connector-curvature="0"
             id="path7516"
             d="m 216.70581,499.30176 0,-21.23027 2.42631,0 0,21.23027 -2.42631,0 z" />
          <path
             inkscape:connector-curvature="0"
             id="path7518"
             d="m 231.99396,484.41024 0,8.55277 q 0,3.85177 -1.24348,5.33789 -1.21316,1.45579 -3.51816,1.45579 -2.27467,0 -3.51816,-1.45579 -1.21316,-1.48612 -1.21316,-5.33789 l 0,-8.55277 q 0,-3.85177 1.21316,-5.30756 1.24349,-1.48612 3.51816,-1.48612 2.305,0 3.51816,1.48612 1.24348,1.45579 1.24348,5.30756 z m -2.39598,9.0077 0,-9.46263 q 0,-4.36737 -2.33533,-4.36737 -1.12217,0 -1.75908,0.9402 -0.60658,0.9402 -0.60658,3.42717 l 0,9.46263 q 0,2.48697 0.60658,3.42717 0.63691,0.9402 1.75908,0.9402 2.33533,0 2.33533,-4.36737 z" />
          <path
             inkscape:connector-curvature="0"
             id="path7520"
             d="m 237.73088,499.30176 -2.36566,0 0,-21.23027 2.51731,0 4.94361,15.52842 0,-15.52842 2.36566,0 0,21.23027 -2.5173,0 -4.94362,-15.4981 0,15.4981 z" />
        </g>
      </g>
    </a>
    <a
       transform="matrix(0.86359486,0,0,0.86359486,193.17783,84.701717)"
       target="_parent"
       xlink:href="http://equipo.reevo.org/projects/activismo"
       id="a7522">
      <g
         transform="translate(-69.834288,-73.902306)"
         id="g7524">
        <path
           inkscape:connector-curvature="0"
           style="fill:#980101;fill-opacity:1;stroke:none"
           d="m 274.15924,217.76568 c -37.4796,0 -74.9782,9.37863 -108.8195,28.13711 l 39.5361,71.31742 c 19.9899,-10.86582 42.8971,-16.99244 67.2494,-16.99244 25.6109,0 49.6416,6.8388 70.3428,18.7722 l 40.5106,-73.09718 c -33.8411,-18.75848 -71.3398,-28.13711 -108.8194,-28.13711 z"
           id="path7526" />
        <g
           transform="translate(2.7120112,-2.7120112)"
           id="g7528"
           style="font-size:30.32894707px;font-style:normal;font-variant:normal;font-weight:300;font-stretch:normal;text-align:start;line-height:125%;letter-spacing:0px;word-spacing:0px;writing-mode:lr-tb;text-anchor:start;fill:#eeeeee;fill-opacity:1;stroke:none;font-family:Pathway Gothic One;-inkscape-font-specification:'Pathway Gothic One, Light'">
          <path
             inkscape:connector-curvature="0"
             id="path7530"
             d="m 229.62885,274.14542 -0.9402,-5.51987 -4.27638,0 -0.90987,5.51987 -2.42632,0 3.88211,-21.23027 3.21487,0 3.8821,21.23027 -2.42631,0 z m -3.06323,-18.16704 -1.81973,10.70612 3.60914,0 -1.78941,-10.70612 z" />
          <path
             inkscape:connector-curvature="0"
             id="path7532"
             d="m 236.43864,268.29193 q 0,2.48697 0.57625,3.42717 0.57625,0.90987 1.63777,0.90987 1.06151,0 1.5771,-0.78855 0.54592,-0.81889 0.7279,-3.06323 l 2.12302,0.27296 q -0.27296,3.09356 -1.39513,4.33704 -1.09184,1.21316 -3.15421,1.21316 -2.06237,0 -3.27553,-1.48612 -1.21315,-1.48612 -1.21315,-5.45921 l 0,-8.24947 q 0,-3.97309 1.21315,-5.45921 1.21316,-1.48612 3.2452,-1.48612 2.06237,0 3.12388,1.06151 1.09184,1.06152 1.33448,3.79112 l -2.21402,0.54592 q -0.18197,-1.94105 -0.69756,-2.66895 -0.48527,-0.75822 -1.48612,-0.75822 -0.97053,0 -1.54678,0.97053 -0.57625,0.94019 -0.57625,3.48783 l 0,9.40197 z" />
          <path
             inkscape:connector-curvature="0"
             id="path7534"
             d="m 244.26493,254.85621 0,-1.94106 8.27981,0 0,1.94106 -2.94191,0 0,19.28921 -2.39599,0 0,-19.28921 -2.94191,0 z" />
          <path
             inkscape:connector-curvature="0"
             id="path7536"
             d="m 254.84452,274.14542 0,-21.23027 2.42632,0 0,21.23027 -2.42632,0 z" />
          <path
             inkscape:connector-curvature="0"
             id="path7538"
             d="m 262.06518,252.91515 3.0329,17.71211 3.03289,-17.71211 2.42632,0 -3.94277,21.23027 -3.03289,0 -3.94276,-21.23027 2.42631,0 z" />
          <path
             inkscape:connector-curvature="0"
             id="path7540"
             d="m 272.97081,274.14542 0,-21.23027 2.42631,0 0,21.23027 -2.42631,0 z" />
          <path
             inkscape:connector-curvature="0"
             id="path7542"
             d="m 285.71134,269.38377 q 0,-2.42631 -1.63777,-3.73046 l -2.42631,-1.78941 q -2.72961,-1.94105 -2.72961,-5.73217 0,-3.15421 1.18283,-4.3977 1.21316,-1.27381 3.27553,-1.27381 2.09269,0 3.24519,1.18283 1.1525,1.1525 1.39514,4.21572 l -2.305,0.51559 q -0.12132,-3.8821 -2.27468,-3.8821 -2.12302,0 -2.12302,3.30585 0,1.45579 0.30329,2.36566 0.33362,0.90987 1.24348,1.63776 l 2.39599,1.78941 q 0.84921,0.60658 1.3648,1.1525 0.5156,0.54592 0.97053,1.75908 0.48526,1.18283 0.48526,2.82059 0,2.91158 -1.27381,4.09441 -1.24349,1.18283 -3.39684,1.18283 -2.15336,0 -3.36652,-1.39513 -1.21316,-1.39513 -1.48612,-4.97395 l 2.27467,-0.39427 q 0.12132,2.57796 0.7279,3.6698 0.63691,1.09184 1.75908,1.09184 2.39599,0 2.39599,-3.21487 z" />
          <path
             inkscape:connector-curvature="0"
             id="path7544"
             d="m 293.64046,274.14542 -2.36566,0 0,-21.23027 3.70013,0 2.57796,14.70954 2.60829,-14.70954 3.70013,0 0,21.23027 -2.36566,0 0,-19.1679 -2.57796,14.61855 -2.69927,0 -2.57796,-14.61855 0,19.1679 z" />
          <path
             inkscape:connector-curvature="0"
             id="path7546"
             d="m 316.75159,259.2539 0,8.55277 q 0,3.85177 -1.24348,5.33789 -1.21316,1.45579 -3.51816,1.45579 -2.27467,0 -3.51816,-1.45579 -1.21316,-1.48612 -1.21316,-5.33789 l 0,-8.55277 q 0,-3.85177 1.21316,-5.30756 1.24349,-1.48612 3.51816,-1.48612 2.305,0 3.51816,1.48612 1.24348,1.45579 1.24348,5.30756 z m -2.39598,9.0077 0,-9.46263 q 0,-4.36737 -2.33533,-4.36737 -1.12217,0 -1.75908,0.9402 -0.60658,0.9402 -0.60658,3.42717 l 0,9.46263 q 0,2.48697 0.60658,3.42717 0.63691,0.9402 1.75908,0.9402 2.33533,0 2.33533,-4.36737 z" />
        </g>
      </g>
    </a>
    <a
       transform="matrix(0.86359486,0,0,0.86359486,73.988264,307.37544)"
       target="_parent"
       onload=""
       onmouseout=""
       onmouseover=""
       xlink:href="http://equipo.reevo.org/projects/comunicacion"
       id="a7548">
      <path
         id="path7550"
         d="m 481.2889,112.89527 c -1.1655,49.44845 -27.7748,92.57246 -67.2495,116.82835 l 43.9007,73.09718 C 524.2719,262.96462 565.3666,191.75152 566.7172,114.3784 l -85.4283,-1.48313 z"
         style="fill:#003366;fill-opacity:1;stroke:none"
         inkscape:connector-curvature="0" />
      <g
         transform="matrix(0.46747398,-0.88400683,0.88400683,0.46747398,31.374613,513.19952)"
         id="g7552"
         style="font-size:30.32894707px;font-style:normal;font-variant:normal;font-weight:300;font-stretch:normal;text-align:start;line-height:100%;letter-spacing:0px;word-spacing:0px;writing-mode:lr-tb;text-anchor:start;fill:#eeeeee;fill-opacity:1;stroke:none;font-family:Pathway Gothic One;-inkscape-font-specification:'Pathway Gothic One, Light'">
        <path
           inkscape:connector-curvature="0"
           id="path7554"
           d="m 428.47293,267.18062 q 0,2.48697 0.57625,3.42717 0.57625,0.90987 1.63776,0.90987 1.06151,0 1.5771,-0.78855 0.54592,-0.81889 0.7279,-3.06323 l 2.12302,0.27296 q -0.27296,3.09356 -1.39513,4.33704 -1.09184,1.21316 -3.15421,1.21316 -2.06237,0 -3.27552,-1.48612 -1.21316,-1.48612 -1.21316,-5.45921 l 0,-8.24947 q 0,-3.97309 1.21316,-5.45921 1.21315,-1.48612 3.24519,-1.48612 2.06237,0 3.12389,1.06151 1.09184,1.06151 1.33447,3.79112 l -2.21401,0.54592 q -0.18198,-1.94105 -0.69757,-2.66895 -0.48526,-0.75822 -1.48612,-0.75822 -0.97052,0 -1.54677,0.97053 -0.57625,0.94019 -0.57625,3.48783 l 0,9.40197 z" />
        <path
           inkscape:connector-curvature="0"
           id="path7556"
           d="m 446.88402,258.14259 0,8.55277 q 0,3.85177 -1.24349,5.33789 -1.21316,1.45579 -3.51816,1.45579 -2.27467,0 -3.51815,-1.45579 -1.21316,-1.48612 -1.21316,-5.33789 l 0,-8.55277 q 0,-3.85177 1.21316,-5.30756 1.24348,-1.48612 3.51815,-1.48612 2.305,0 3.51816,1.48612 1.24349,1.45579 1.24349,5.30756 z m -2.39599,9.0077 0,-9.46263 q 0,-4.36737 -2.33533,-4.36737 -1.12217,0 -1.75908,0.9402 -0.60658,0.94019 -0.60658,3.42717 l 0,9.46263 q 0,2.48697 0.60658,3.42717 0.63691,0.9402 1.75908,0.9402 2.33533,0 2.33533,-4.36737 z" />
        <path
           inkscape:connector-curvature="0"
           id="path7558"
           d="m 452.62093,273.03411 -2.36566,0 0,-21.23027 3.70013,0 2.57796,14.70954 2.60829,-14.70954 3.70013,0 0,21.23027 -2.36565,0 0,-19.1679 -2.57796,14.61855 -2.69928,0 -2.57796,-14.61855 0,19.1679 z" />
        <path
           inkscape:connector-curvature="0"
           id="path7560"
           d="m 473.45739,251.80384 2.39599,0 0,14.89152 q 0,3.85177 -1.24349,5.33789 -1.21316,1.45579 -3.4575,1.45579 -2.24434,0 -3.48783,-1.45579 -1.21316,-1.48612 -1.21316,-5.33789 l 0,-14.89152 2.39599,0 0,15.34645 q 0,2.45664 0.60658,3.42717 0.60658,0.9402 1.66809,0.9402 1.09184,0 1.69842,-0.9402 0.63691,-0.97053 0.63691,-3.42717 l 0,-15.34645 z" />
        <path
           inkscape:connector-curvature="0"
           id="path7562"
           d="m 481.82439,273.03411 -2.36566,0 0,-21.23027 2.5173,0 4.94362,15.52842 0,-15.52842 2.36566,0 0,21.23027 -2.51731,0 -4.94361,-15.4981 0,15.4981 z" />
        <path
           inkscape:connector-curvature="0"
           id="path7564"
           d="m 493.08306,273.03411 0,-21.23027 2.42632,0 0,21.23027 -2.42632,0 z" />
        <path
           inkscape:connector-curvature="0"
           id="path7566"
           d="m 501.27425,267.18062 q 0,2.48697 0.57625,3.42717 0.57625,0.90987 1.63776,0.90987 1.06151,0 1.57711,-0.78855 0.54592,-0.81889 0.72789,-3.06323 l 2.12303,0.27296 q -0.27296,3.09356 -1.39513,4.33704 -1.09185,1.21316 -3.15421,1.21316 -2.06237,0 -3.27553,-1.48612 -1.21316,-1.48612 -1.21316,-5.45921 l 0,-8.24947 q 0,-3.97309 1.21316,-5.45921 1.21316,-1.48612 3.2452,-1.48612 2.06237,0 3.12388,1.06151 1.09184,1.06151 1.33447,3.79112 l -2.21401,0.54592 q -0.18197,-1.94105 -0.69757,-2.66895 -0.48526,-0.75822 -1.48612,-0.75822 -0.97052,0 -1.54677,0.97053 -0.57625,0.94019 -0.57625,3.48783 l 0,9.40197 z" />
        <path
           inkscape:connector-curvature="0"
           id="path7568"
           d="m 517.74429,273.03411 -0.9402,-5.51987 -4.27638,0 -0.90987,5.51987 -2.42632,0 3.88211,-21.23027 3.21487,0 3.8821,21.23027 -2.42631,0 z m -3.06323,-18.16704 -1.81973,10.70611 3.60914,0 -1.78941,-10.70611 z" />
        <path
           inkscape:connector-curvature="0"
           id="path7570"
           d="m 524.55409,267.18062 q 0,2.48697 0.57625,3.42717 0.57625,0.90987 1.63776,0.90987 1.06151,0 1.57711,-0.78855 0.54592,-0.81889 0.72789,-3.06323 l 2.12303,0.27296 q -0.27296,3.09356 -1.39514,4.33704 -1.09184,1.21316 -3.15421,1.21316 -2.06236,0 -3.27552,-1.48612 -1.21316,-1.48612 -1.21316,-5.45921 l 0,-8.24947 q 0,-3.97309 1.21316,-5.45921 1.21316,-1.48612 3.2452,-1.48612 2.06236,0 3.12388,1.06151 1.09184,1.06151 1.33447,3.79112 l -2.21401,0.54592 q -0.18198,-1.94105 -0.69757,-2.66895 -0.48526,-0.75822 -1.48612,-0.75822 -0.97052,0 -1.54677,0.97053 -0.57625,0.94019 -0.57625,3.48783 l 0,9.40197 z" />
        <path
           inkscape:connector-curvature="0"
           id="path7572"
           d="m 533.89682,273.03411 0,-21.23027 2.42632,0 0,21.23027 -2.42632,0 z" />
        <path
           inkscape:connector-curvature="0"
           id="path7574"
           d="m 549.18498,258.14259 0,8.55277 q 0,3.85177 -1.24349,5.33789 -1.21315,1.45579 -3.51815,1.45579 -2.27467,0 -3.51816,-1.45579 -1.21316,-1.48612 -1.21316,-5.33789 l 0,-8.55277 q 0,-3.85177 1.21316,-5.30756 1.24349,-1.48612 3.51816,-1.48612 2.305,0 3.51815,1.48612 1.24349,1.45579 1.24349,5.30756 z m -2.39599,9.0077 0,-9.46263 q 0,-4.36737 -2.33532,-4.36737 -1.12218,0 -1.75908,0.9402 -0.60658,0.94019 -0.60658,3.42717 l 0,9.46263 q 0,2.48697 0.60658,3.42717 0.6369,0.9402 1.75908,0.9402 2.33532,0 2.33532,-4.36737 z" />
        <path
           inkscape:connector-curvature="0"
           id="path7576"
           d="m 554.92189,273.03411 -2.36566,0 0,-21.23027 2.5173,0 4.94362,15.52842 0,-15.52842 2.36566,0 0,21.23027 -2.5173,0 -4.94362,-15.4981 0,15.4981 z" />
      </g>
    </a>
    <a
       id="a7578"
       xlink:href="http://equipo.reevo.org/projects/relaciones-institucionales"
       target="_parent"
       transform="matrix(0.86359486,0,0,0.86359486,209.5143,152.60028)">
      <g
         id="g7580">
        <path
           id="path7582"
           d="m 252.91174,411.44512 c -20.5183,11.64914 -44.2572,18.30607 -69.5376,18.30607 -24.0149,0 -46.6096,-6.02438 -66.4019,-16.61107 l -40.383598,72.80056 c 67.682398,37.51694 149.956598,37.51694 217.638898,0 l -41.3158,-74.49556 z"
           style="fill:#015a01;fill-opacity:1;stroke:none"
           inkscape:connector-curvature="0" />
      </g>
      <g
         id="g7584"
         style="font-size:22.94060898px;font-style:normal;font-weight:normal;line-height:86.00000143%;letter-spacing:0px;word-spacing:0px;fill:#eeeeee;fill-opacity:1;stroke:none;font-family:Sans"
         transform="matrix(1.3560056,0,0,1.3560056,-141.07532,-394.63043)">
        <path
           id="path7586"
           style="font-variant:normal;font-stretch:normal;text-align:center;text-anchor:middle;fill:#eeeeee;font-family:Pathway Gothic One;-inkscape-font-specification:Pathway Gothic One Semi-Light"
           d="m 200.04284,631.92596 0,-16.05842 2.84464,0 c 1.13173,1e-5 2.01112,0.35942 2.63817,1.07821 0.62703,0.71882 0.94056,2.01114 0.94056,3.87696 l 0,0.1147 c 0,2.32466 -0.56587,3.8005 -1.6976,4.42754 l 1.90407,6.56101 -1.88113,0 -1.78937,-6.14808 -1.12409,0 0,6.14808 -1.83525,0 m 4.61107,-10.75914 0,-0.68822 c -1e-5,-1.1776 -0.16059,-1.99582 -0.48176,-2.45464 -0.30588,-0.4588 -0.7341,-0.68821 -1.28467,-0.68822 l -1.00939,0 0,6.99688 1.00939,0 c 1.17761,10e-6 1.76642,-1.05526 1.76643,-3.1658"
           inkscape:connector-curvature="0" />
        <path
           id="path7588"
           style="font-variant:normal;font-stretch:normal;text-align:center;text-anchor:middle;fill:#eeeeee;font-family:Pathway Gothic One;-inkscape-font-specification:Pathway Gothic One Semi-Light"
           d="m 210.74966,624.65379 0,5.80398 3.99166,0 0,1.46819 -5.82691,0 0,-16.05842 5.75809,0 0,1.4682 -3.92284,0 0,5.84985 3.57873,0 0,1.4682 -3.57873,0"
           inkscape:connector-curvature="0" />
        <path
           id="path7590"
           style="font-variant:normal;font-stretch:normal;text-align:center;text-anchor:middle;fill:#eeeeee;font-family:Pathway Gothic One;-inkscape-font-specification:Pathway Gothic One Semi-Light"
           d="m 217.15869,631.92596 0,-16.05842 1.83525,0 0,14.59023 3.55579,0 0,1.46819 -5.39104,0"
           inkscape:connector-curvature="0" />
        <path
           id="path7592"
           style="font-variant:normal;font-stretch:normal;text-align:center;text-anchor:middle;fill:#eeeeee;font-family:Pathway Gothic One;-inkscape-font-specification:Pathway Gothic One Semi-Light"
           d="m 229.71867,631.92596 -0.71116,-4.17519 -3.23462,0 -0.68822,4.17519 -1.83525,0 2.9364,-16.05842 2.4317,0 2.9364,16.05842 -1.83525,0 m -2.317,-13.74142 -1.37644,8.09803 2.72994,0 -1.3535,-8.09803"
           inkscape:connector-curvature="0" />
        <path
           id="path7594"
           style="font-variant:normal;font-stretch:normal;text-align:center;text-anchor:middle;fill:#eeeeee;font-family:Pathway Gothic One;-inkscape-font-specification:Pathway Gothic One Semi-Light"
           d="m 234.86955,627.49843 c 0,1.25409 0.14529,2.11818 0.43588,2.59229 0.29057,0.45881 0.7035,0.68822 1.23879,0.68821 0.53527,1e-5 0.93291,-0.19881 1.19291,-0.59645 0.27528,-0.41293 0.45881,-1.18526 0.55057,-2.317 l 1.60585,0.20646 c -0.13765,1.55997 -0.48941,2.65347 -1.05527,3.28051 -0.55058,0.61175 -1.34586,0.91762 -2.38582,0.91762 -1.03998,0 -1.86584,-0.37469 -2.47759,-1.12409 -0.61175,-0.74939 -0.91763,-2.12582 -0.91762,-4.12931 l 0,-6.23984 c -1e-5,-2.00347 0.30587,-3.3799 0.91762,-4.12931 0.61175,-0.74938 1.42996,-1.12407 2.45465,-1.12409 1.03996,2e-5 1.82759,0.26766 2.36288,0.80292 0.55057,0.5353 0.88703,1.49115 1.00938,2.86758 l -1.67466,0.41293 c -0.0918,-0.97879 -0.26765,-1.65171 -0.52763,-2.01878 -0.24471,-0.38233 -0.61941,-0.5735 -1.12409,-0.57351 -0.48941,10e-6 -0.8794,0.24471 -1.16997,0.7341 -0.29059,0.47412 -0.43588,1.35351 -0.43588,2.63817 l 0,7.11159"
           inkscape:connector-curvature="0" />
        <path
           id="path7596"
           style="font-variant:normal;font-stretch:normal;text-align:center;text-anchor:middle;fill:#eeeeee;font-family:Pathway Gothic One;-inkscape-font-specification:Pathway Gothic One Semi-Light"
           d="m 241.93634,631.92596 0,-16.05842 1.83525,0 0,16.05842 -1.83525,0"
           inkscape:connector-curvature="0" />
        <path
           id="path7598"
           style="font-variant:normal;font-stretch:normal;text-align:center;text-anchor:middle;fill:#eeeeee;font-family:Pathway Gothic One;-inkscape-font-specification:Pathway Gothic One Semi-Light"
           d="m 253.5002,620.66213 0,6.46925 c -1e-5,1.9423 -0.31353,3.28815 -0.94057,4.03754 -0.61175,0.7341 -1.49879,1.10115 -2.66111,1.10115 -1.14703,0 -2.03407,-0.36705 -2.66111,-1.10115 -0.61175,-0.74939 -0.91762,-2.09524 -0.91762,-4.03754 l 0,-6.46925 c 0,-1.9423 0.30587,-3.2805 0.91762,-4.01461 0.62704,-0.74938 1.51408,-1.12407 2.66111,-1.12409 1.16232,2e-5 2.04936,0.37471 2.66111,1.12409 0.62704,0.73411 0.94056,2.07231 0.94057,4.01461 m -1.81231,6.81336 0,-7.15747 c -1e-5,-2.20229 -0.58881,-3.30344 -1.76643,-3.30345 -0.56587,10e-6 -1.00939,0.23707 -1.33055,0.71116 -0.30588,0.47412 -0.45882,1.33821 -0.45881,2.59229 l 0,7.15747 c -1e-5,1.25409 0.15293,2.11818 0.45881,2.59229 0.32116,0.4741 0.76468,0.71116 1.33055,0.71115 1.17762,1e-5 1.76642,-1.10114 1.76643,-3.30344"
           inkscape:connector-curvature="0" />
        <path
           id="path7600"
           style="font-variant:normal;font-stretch:normal;text-align:center;text-anchor:middle;fill:#eeeeee;font-family:Pathway Gothic One;-inkscape-font-specification:Pathway Gothic One Semi-Light"
           d="m 257.83956,631.92596 -1.78937,0 0,-16.05842 1.90407,0 3.73932,11.74559 0,-11.74559 1.78937,0 0,16.05842 -1.90407,0 -3.73932,-11.72265 0,11.72265"
           inkscape:connector-curvature="0" />
        <path
           id="path7602"
           style="font-variant:normal;font-stretch:normal;text-align:center;text-anchor:middle;fill:#eeeeee;font-family:Pathway Gothic One;-inkscape-font-specification:Pathway Gothic One Semi-Light"
           d="m 268.19079,624.65379 0,5.80398 3.99167,0 0,1.46819 -5.82692,0 0,-16.05842 5.75809,0 0,1.4682 -3.92284,0 0,5.84985 3.57874,0 0,1.4682 -3.57874,0"
           inkscape:connector-curvature="0" />
        <path
           id="path7604"
           style="font-variant:normal;font-stretch:normal;text-align:center;text-anchor:middle;fill:#eeeeee;font-family:Pathway Gothic One;-inkscape-font-specification:Pathway Gothic One Semi-Light"
           d="m 279.53205,628.32429 c -1e-5,-1.2235 -0.41294,-2.16406 -1.23879,-2.8217 l -1.83525,-1.35349 c -1.37644,-0.97879 -2.06466,-2.42405 -2.06466,-4.33578 0,-1.59053 0.29823,-2.69933 0.89469,-3.32639 0.61174,-0.64232 1.43761,-0.96348 2.47758,-0.9635 1.05527,2e-5 1.87348,0.29824 2.45465,0.89468 0.58115,0.58118 0.93291,1.64409 1.05527,3.18875 l -1.74349,0.38999 c -0.0612,-1.95759 -0.6347,-2.93639 -1.72055,-2.9364 -1.07056,1e-5 -1.60584,0.83352 -1.60584,2.50053 0,0.73411 0.0765,1.33056 0.22941,1.78936 0.16823,0.45883 0.48175,0.87176 0.94056,1.2388 l 1.81231,1.35349 c 0.42822,0.30588 0.77233,0.59647 1.03233,0.87175 0.25998,0.27529 0.50468,0.71881 0.7341,1.33055 0.24469,0.59646 0.36704,1.30762 0.36705,2.13348 -10e-6,1.4682 -0.32118,2.50053 -0.96351,3.09698 -0.62705,0.59646 -1.4835,0.89468 -2.56935,0.89468 -1.08585,0 -1.93466,-0.35175 -2.5464,-1.05526 -0.61175,-0.70352 -0.98645,-1.9576 -1.12409,-3.76226 l 1.72054,-0.29823 c 0.0612,1.29997 0.2447,2.22524 0.55058,2.77581 0.32116,0.55058 0.76468,0.82586 1.33055,0.82586 1.2082,0 1.8123,-0.81056 1.81231,-2.4317"
           inkscape:connector-curvature="0" />
        <path
           id="path7606"
           style="font-variant:normal;font-stretch:normal;text-align:center;text-anchor:middle;fill:#eeeeee;font-family:Pathway Gothic One;-inkscape-font-specification:Pathway Gothic One Semi-Light"
           d="m 182.47894,651.65489 0,-16.05843 1.83525,0 0,16.05843 -1.83525,0"
           inkscape:connector-curvature="0" />
        <path
           id="path7608"
           style="font-variant:normal;font-stretch:normal;text-align:center;text-anchor:middle;fill:#eeeeee;font-family:Pathway Gothic One;-inkscape-font-specification:Pathway Gothic One Semi-Light"
           d="m 188.97292,651.65489 -1.78936,0 0,-16.05843 1.90407,0 3.73932,11.74559 0,-11.74559 1.78936,0 0,16.05843 -1.90407,0 -3.73932,-11.72265 0,11.72265"
           inkscape:connector-curvature="0" />
        <path
           id="path7610"
           style="font-variant:normal;font-stretch:normal;text-align:center;text-anchor:middle;fill:#eeeeee;font-family:Pathway Gothic One;-inkscape-font-specification:Pathway Gothic One Semi-Light"
           d="m 202.42114,648.05321 c -1e-5,-1.22349 -0.41294,-2.16406 -1.23879,-2.82169 l -1.83525,-1.3535 c -1.37644,-0.97879 -2.06466,-2.42405 -2.06466,-4.33577 0,-1.59054 0.29823,-2.69933 0.89469,-3.32639 0.61174,-0.64232 1.4376,-0.96349 2.47758,-0.96351 1.05526,2e-5 1.87348,0.29825 2.45465,0.89469 0.58115,0.58117 0.93291,1.64409 1.05526,3.18874 l -1.74348,0.38999 c -0.0612,-1.95758 -0.6347,-2.93638 -1.72055,-2.9364 -1.07056,2e-5 -1.60584,0.83353 -1.60584,2.50053 0,0.73411 0.0765,1.33057 0.22941,1.78937 0.16822,0.45882 0.48174,0.87175 0.94056,1.23879 l 1.81231,1.3535 c 0.42822,0.30588 0.77233,0.59646 1.03233,0.87174 0.25998,0.27529 0.50468,0.71881 0.7341,1.33055 0.24469,0.59647 0.36704,1.30762 0.36705,2.13348 -1e-5,1.4682 -0.32118,2.50053 -0.96351,3.09698 -0.62705,0.59646 -1.4835,0.89469 -2.56935,0.89469 -1.08586,0 -1.93466,-0.35176 -2.54641,-1.05527 -0.61175,-0.70351 -0.98644,-1.9576 -1.12409,-3.76226 l 1.72055,-0.29823 c 0.0612,1.29997 0.2447,2.22524 0.55057,2.77582 0.32117,0.55057 0.76469,0.82586 1.33056,0.82586 1.2082,0 1.8123,-0.81057 1.81231,-2.43171"
           inkscape:connector-curvature="0" />
        <path
           id="path7612"
           style="font-variant:normal;font-stretch:normal;text-align:center;text-anchor:middle;fill:#eeeeee;font-family:Pathway Gothic One;-inkscape-font-specification:Pathway Gothic One Semi-Light"
           d="m 205.48228,637.06466 0,-1.4682 6.26278,0 0,1.4682 -2.22524,0 0,14.59023 -1.8123,0 0,-14.59023 -2.22524,0"
           inkscape:connector-curvature="0" />
        <path
           id="path7614"
           style="font-variant:normal;font-stretch:normal;text-align:center;text-anchor:middle;fill:#eeeeee;font-family:Pathway Gothic One;-inkscape-font-specification:Pathway Gothic One Semi-Light"
           d="m 213.48461,651.65489 0,-16.05843 1.83524,0 0,16.05843 -1.83524,0"
           inkscape:connector-curvature="0" />
        <path
           id="path7616"
           style="font-variant:normal;font-stretch:normal;text-align:center;text-anchor:middle;fill:#eeeeee;font-family:Pathway Gothic One;-inkscape-font-specification:Pathway Gothic One Semi-Light"
           d="m 217.04219,637.06466 0,-1.4682 6.26279,0 0,1.4682 -2.22524,0 0,14.59023 -1.81231,0 0,-14.59023 -2.22524,0"
           inkscape:connector-curvature="0" />
        <path
           id="path7618"
           style="font-variant:normal;font-stretch:normal;text-align:center;text-anchor:middle;fill:#eeeeee;font-family:Pathway Gothic One;-inkscape-font-specification:Pathway Gothic One Semi-Light"
           d="m 230.18322,635.59646 1.81231,0 0,11.26384 c -1e-5,1.94231 -0.31353,3.28816 -0.94057,4.03755 -0.61176,0.7341 -1.4835,1.10115 -2.61523,1.10115 -1.13174,0 -2.01113,-0.36705 -2.63817,-1.10115 -0.61175,-0.74939 -0.91762,-2.09524 -0.91762,-4.03755 l 0,-11.26384 1.81231,0 0,11.60795 c -1e-5,1.2388 0.15293,2.10289 0.45881,2.59229 0.30587,0.47411 0.72645,0.71116 1.26173,0.71116 0.55057,0 0.97879,-0.23705 1.28468,-0.71116 0.32116,-0.4894 0.48174,-1.35349 0.48175,-2.59229 l 0,-11.60795"
           inkscape:connector-curvature="0" />
        <path
           id="path7620"
           style="font-variant:normal;font-stretch:normal;text-align:center;text-anchor:middle;fill:#eeeeee;font-family:Pathway Gothic One;-inkscape-font-specification:Pathway Gothic One Semi-Light"
           d="m 236.21373,647.22735 c 0,1.25409 0.14529,2.11819 0.43587,2.59229 0.29058,0.45881 0.70351,0.68822 1.2388,0.68822 0.53527,0 0.93291,-0.19882 1.19291,-0.59646 0.27528,-0.41293 0.4588,-1.18526 0.55057,-2.317 l 1.60584,0.20647 c -0.13765,1.55996 -0.4894,2.65346 -1.05526,3.2805 -0.55058,0.61175 -1.34586,0.91763 -2.38583,0.91763 -1.03997,0 -1.86584,-0.3747 -2.47758,-1.12409 -0.61175,-0.74939 -0.91763,-2.12583 -0.91763,-4.12931 l 0,-6.23985 c 0,-2.00346 0.30588,-3.3799 0.91763,-4.12931 0.61174,-0.74937 1.42996,-1.12407 2.45464,-1.12409 1.03997,2e-5 1.8276,0.26766 2.36289,0.80292 0.55056,0.5353 0.88702,1.49116 1.00938,2.86758 l -1.67466,0.41293 c -0.0918,-0.97878 -0.26765,-1.65171 -0.52764,-2.01877 -0.2447,-0.38233 -0.6194,-0.5735 -1.12409,-0.57352 -0.4894,2e-5 -0.87939,0.24472 -1.16997,0.7341 -0.29058,0.47412 -0.43587,1.35351 -0.43587,2.63817 l 0,7.11159"
           inkscape:connector-curvature="0" />
        <path
           id="path7622"
           style="font-variant:normal;font-stretch:normal;text-align:center;text-anchor:middle;fill:#eeeeee;font-family:Pathway Gothic One;-inkscape-font-specification:Pathway Gothic One Semi-Light"
           d="m 243.28051,651.65489 0,-16.05843 1.83525,0 0,16.05843 -1.83525,0"
           inkscape:connector-curvature="0" />
        <path
           id="path7624"
           style="font-variant:normal;font-stretch:normal;text-align:center;text-anchor:middle;fill:#eeeeee;font-family:Pathway Gothic One;-inkscape-font-specification:Pathway Gothic One Semi-Light"
           d="m 254.84437,640.39105 0,6.46925 c -1e-5,1.94231 -0.31353,3.28816 -0.94057,4.03755 -0.61175,0.7341 -1.49879,1.10115 -2.66111,1.10115 -1.14703,0 -2.03407,-0.36705 -2.66111,-1.10115 -0.61175,-0.74939 -0.91762,-2.09524 -0.91762,-4.03755 l 0,-6.46925 c 0,-1.94229 0.30587,-3.28049 0.91762,-4.01461 0.62704,-0.74937 1.51408,-1.12407 2.66111,-1.12409 1.16232,2e-5 2.04936,0.37472 2.66111,1.12409 0.62704,0.73412 0.94056,2.07232 0.94057,4.01461 m -1.81231,6.81336 0,-7.15747 c -1e-5,-2.20228 -0.58881,-3.30343 -1.76643,-3.30345 -0.56587,2e-5 -1.00939,0.23707 -1.33055,0.71116 -0.30588,0.47412 -0.45882,1.33822 -0.45881,2.59229 l 0,7.15747 c -1e-5,1.25409 0.15293,2.11819 0.45881,2.59229 0.32116,0.47411 0.76468,0.71116 1.33055,0.71116 1.17762,0 1.76642,-1.10115 1.76643,-3.30345"
           inkscape:connector-curvature="0" />
        <path
           id="path7626"
           style="font-variant:normal;font-stretch:normal;text-align:center;text-anchor:middle;fill:#eeeeee;font-family:Pathway Gothic One;-inkscape-font-specification:Pathway Gothic One Semi-Light"
           d="m 259.18374,651.65489 -1.78937,0 0,-16.05843 1.90407,0 3.73932,11.74559 0,-11.74559 1.78936,0 0,16.05843 -1.90407,0 -3.73931,-11.72265 0,11.72265"
           inkscape:connector-curvature="0" />
        <path
           id="path7628"
           style="font-variant:normal;font-stretch:normal;text-align:center;text-anchor:middle;fill:#eeeeee;font-family:Pathway Gothic One;-inkscape-font-specification:Pathway Gothic One Semi-Light"
           d="m 273.09076,651.65489 -0.71116,-4.17519 -3.23462,0 -0.68822,4.17519 -1.83525,0 2.9364,-16.05843 2.4317,0 2.9364,16.05843 -1.83525,0 m -2.317,-13.74143 -1.37644,8.09804 2.72994,0 -1.3535,-8.09804"
           inkscape:connector-curvature="0" />
        <path
           id="path7630"
           style="font-variant:normal;font-stretch:normal;text-align:center;text-anchor:middle;fill:#eeeeee;font-family:Pathway Gothic One;-inkscape-font-specification:Pathway Gothic One Semi-Light"
           d="m 276.7505,651.65489 0,-16.05843 1.83525,0 0,14.59023 3.55579,0 0,1.4682 -5.39104,0"
           inkscape:connector-curvature="0" />
        <path
           id="path7632"
           style="font-variant:normal;font-stretch:normal;text-align:center;text-anchor:middle;fill:#eeeeee;font-family:Pathway Gothic One;-inkscape-font-specification:Pathway Gothic One Semi-Light"
           d="m 285.75469,644.38272 0,5.80397 3.99167,0 0,1.4682 -5.82691,0 0,-16.05843 5.75809,0 0,1.4682 -3.92285,0 0,5.84986 3.57874,0 0,1.4682 -3.57874,0"
           inkscape:connector-curvature="0" />
        <path
           id="path7634"
           style="font-variant:normal;font-stretch:normal;text-align:center;text-anchor:middle;fill:#eeeeee;font-family:Pathway Gothic One;-inkscape-font-specification:Pathway Gothic One Semi-Light"
           d="m 297.09595,648.05321 c 0,-1.22349 -0.41293,-2.16406 -1.23879,-2.82169 l -1.83525,-1.3535 c -1.37644,-0.97879 -2.06465,-2.42405 -2.06465,-4.33577 0,-1.59054 0.29822,-2.69933 0.89468,-3.32639 0.61175,-0.64232 1.43761,-0.96349 2.47759,-0.96351 1.05526,2e-5 1.87347,0.29825 2.45464,0.89469 0.58116,0.58117 0.93291,1.64409 1.05527,3.18874 l -1.74349,0.38999 c -0.0612,-1.95758 -0.63469,-2.93638 -1.72054,-2.9364 -1.07057,2e-5 -1.60585,0.83353 -1.60584,2.50053 -10e-6,0.73411 0.0765,1.33057 0.2294,1.78937 0.16823,0.45882 0.48175,0.87175 0.94057,1.23879 l 1.81231,1.3535 c 0.42821,0.30588 0.77232,0.59646 1.03232,0.87174 0.25999,0.27529 0.50469,0.71881 0.7341,1.33055 0.24469,0.59647 0.36704,1.30762 0.36705,2.13348 -10e-6,1.4682 -0.32117,2.50053 -0.9635,3.09698 -0.62705,0.59646 -1.4835,0.89469 -2.56935,0.89469 -1.08586,0 -1.93466,-0.35176 -2.54641,-1.05527 -0.61175,-0.70351 -0.98645,-1.9576 -1.12409,-3.76226 l 1.72055,-0.29823 c 0.0612,1.29997 0.24469,2.22524 0.55057,2.77582 0.32117,0.55057 0.76468,0.82586 1.33056,0.82586 1.2082,0 1.8123,-0.81057 1.8123,-2.43171"
           inkscape:connector-curvature="0" />
      </g>
    </a>
    <a
       id="a7636"
       xlink:href="http://equipo.reevo.org/projects/investigacion"
       onmouseover=""
       onmouseout=""
       onload=""
       target="_parent"
       transform="matrix(0.86359486,0,0,0.86359486,-195.40922,293.72355)">
      <path
         id="path7638"
         d="m 511.27293,128.74586 -81.36033,1.44075 c 1.35055,77.37313 42.44525,148.58623 108.77707,188.44241 l 42.8413,-71.27505 C 540.41037,223.47951 512.4823,179.42754 511.27293,128.74586 z"
         style="fill:#eab101;fill-opacity:1;stroke:none"
         inkscape:connector-curvature="0" />
      <g
         id="g7640"
         style="font-size:31.65046883px;font-style:normal;font-weight:normal;line-height:125%;letter-spacing:0px;word-spacing:0px;fill:#eeeeee;fill-opacity:1;stroke:none;font-family:Sans"
         transform="matrix(0.52780352,0.8493665,-0.8493665,0.52780352,0,0)">
        <path
           inkscape:connector-curvature="0"
           id="path7642"
           style="font-variant:normal;font-stretch:normal;fill:#eeeeee;font-family:Pathway Gothic One;-inkscape-font-specification:Pathway Gothic One Semi-Light"
           d="m 376.90151,-299.0098 0,-22.15532 2.53204,0 0,22.15532 -2.53204,0" />
        <path
           inkscape:connector-curvature="0"
           id="path7644"
           style="font-variant:normal;font-stretch:normal;fill:#eeeeee;font-family:Pathway Gothic One;-inkscape-font-specification:Pathway Gothic One Semi-Light"
           d="m 385.86107,-299.0098 -2.46874,0 0,-22.15532 2.62699,0 5.15903,16.20504 0,-16.20504 2.46873,0 0,22.15532 -2.62699,0 -5.15902,-16.17339 0,16.17339" />
        <path
           inkscape:connector-curvature="0"
           id="path7646"
           style="font-variant:normal;font-stretch:normal;fill:#eeeeee;font-family:Pathway Gothic One;-inkscape-font-specification:Pathway Gothic One Semi-Light"
           d="m 398.65478,-321.16512 3.16505,18.48387 3.16504,-18.48387 2.53204,0 -4.11456,22.15532 -3.16505,0 -4.11456,-22.15532 2.53204,0" />
        <path
           inkscape:connector-curvature="0"
           id="path7648"
           style="font-variant:normal;font-stretch:normal;fill:#eeeeee;font-family:Pathway Gothic One;-inkscape-font-specification:Pathway Gothic One Semi-Light"
           d="m 412.56764,-309.04299 0,8.00756 5.50718,0 0,2.02563 -8.03922,0 0,-22.15532 7.94427,0 0,2.02563 -5.41223,0 0,8.07087 4.93747,0 0,2.02563 -4.93747,0" />
        <path
           inkscape:connector-curvature="0"
           id="path7650"
           style="font-variant:normal;font-stretch:normal;fill:#eeeeee;font-family:Pathway Gothic One;-inkscape-font-specification:Pathway Gothic One Semi-Light"
           d="m 428.21483,-303.97892 c 0,-1.68802 -0.56971,-2.98569 -1.70912,-3.89301 l -2.53204,-1.86738 c -1.89903,-1.3504 -2.84854,-3.34438 -2.84854,-5.98193 0,-2.19442 0.41145,-3.72419 1.23437,-4.58932 0.84401,-0.88619 1.98342,-1.3293 3.41825,-1.32932 1.45591,2e-5 2.58478,0.41148 3.3866,1.23437 0.8018,0.80183 1.28711,2.2683 1.45592,4.39941 l -2.40544,0.53806 c -0.0844,-2.70082 -0.87567,-4.05124 -2.37378,-4.05126 -1.47703,2e-5 -2.21554,1.14999 -2.21553,3.4499 -10e-6,1.01283 0.10549,1.83574 0.3165,2.46874 0.2321,0.63302 0.66466,1.20273 1.29767,1.70912 l 2.50039,1.86738 c 0.5908,0.42202 1.06555,0.82292 1.42427,1.20272 0.35869,0.37981 0.6963,0.99172 1.01281,1.83573 0.3376,0.82292 0.5064,1.80408 0.50641,2.94349 -10e-6,2.02563 -0.44312,3.4499 -1.32932,4.27281 -0.86512,0.82291 -2.04674,1.23437 -3.54485,1.23437 -1.49813,0 -2.66919,-0.48531 -3.5132,-1.45592 -0.84402,-0.97061 -1.36097,-2.70084 -1.55088,-5.19068 l 2.37379,-0.41145 c 0.0844,1.79353 0.3376,3.0701 0.75961,3.8297 0.4431,0.75962 1.05501,1.13942 1.83573,1.13942 1.66691,0 2.50038,-1.11831 2.50038,-3.35495" />
        <path
           inkscape:connector-curvature="0"
           id="path7652"
           style="font-variant:normal;font-stretch:normal;fill:#eeeeee;font-family:Pathway Gothic One;-inkscape-font-specification:Pathway Gothic One Semi-Light"
           d="m 432.43819,-319.13949 0,-2.02563 8.64058,0 0,2.02563 -3.07009,0 0,20.12969 -2.50039,0 0,-20.12969 -3.0701,0" />
        <path
           inkscape:connector-curvature="0"
           id="path7654"
           style="font-variant:normal;font-stretch:normal;fill:#eeeeee;font-family:Pathway Gothic One;-inkscape-font-specification:Pathway Gothic One Semi-Light"
           d="m 443.47877,-299.0098 0,-22.15532 2.53203,0 0,22.15532 -2.53203,0" />
        <path
           inkscape:connector-curvature="0"
           id="path7656"
           style="font-variant:normal;font-stretch:normal;fill:#eeeeee;font-family:Pathway Gothic One;-inkscape-font-specification:Pathway Gothic One Semi-Light"
           d="m 454.14745,-308.72649 0,-2.02563 4.96912,0 0,11.71067 -1.55087,0 -0.44311,-2.05728 c -0.63301,1.70913 -1.77243,2.56369 -3.41825,2.56369 -1.32932,0 -2.36323,-0.50641 -3.10174,-1.51922 -0.71741,-1.03391 -1.07612,-2.89074 -1.07612,-5.57048 l 0,-8.76718 c 0,-2.76413 0.42201,-4.66315 1.26602,-5.69709 0.84401,-1.03389 1.97287,-1.55085 3.3866,-1.55087 1.43481,2e-5 2.52148,0.36928 3.26,1.10777 0.7596,0.73853 1.22381,2.05729 1.39262,3.9563 l -2.31048,0.56971 c -0.12661,-1.3504 -0.36927,-2.27881 -0.72797,-2.78524 -0.33761,-0.52749 -0.85456,-0.79124 -1.55087,-0.79126 -0.67521,2e-5 -1.21327,0.33762 -1.61417,1.01281 -0.40091,0.65413 -0.60137,1.8674 -0.60136,3.63981 l 0,9.77999 c -10e-6,1.73023 0.1899,2.9224 0.56971,3.57651 0.4009,0.65411 0.96006,0.98116 1.67747,0.98116 1.60362,0 2.42653,-1.42427 2.46874,-4.27281 l 0,-3.86136 -2.59534,0" />
        <path
           inkscape:connector-curvature="0"
           id="path7658"
           style="font-variant:normal;font-stretch:normal;fill:#eeeeee;font-family:Pathway Gothic One;-inkscape-font-specification:Pathway Gothic One Semi-Light"
           d="m 470.32726,-299.0098 -0.98116,-5.76038 -4.46272,0 -0.94951,5.76038 -2.53204,0 4.05126,-22.15532 3.35495,0 4.05126,22.15532 -2.53204,0 m -3.19669,-18.95863 -1.89903,11.17262 3.7664,0 -1.86737,-11.17262" />
        <path
           inkscape:connector-curvature="0"
           id="path7660"
           style="font-variant:normal;font-stretch:normal;fill:#eeeeee;font-family:Pathway Gothic One;-inkscape-font-specification:Pathway Gothic One Semi-Light"
           d="m 477.43378,-305.11834 c 0,1.73023 0.20045,2.9224 0.60136,3.57651 0.4009,0.63301 0.97061,0.94951 1.70913,0.94951 0.7385,0 1.28711,-0.2743 1.64582,-0.82291 0.3798,-0.56971 0.633,-1.63527 0.75961,-3.1967 l 2.21554,0.28486 c -0.18992,2.15223 -0.67523,3.6609 -1.45593,4.52601 -0.75962,0.84401 -1.85683,1.26602 -3.29165,1.26602 -1.43482,0 -2.57424,-0.51696 -3.41825,-1.55087 -0.84401,-1.03392 -1.26602,-2.93294 -1.26601,-5.69709 l 0,-8.60892 c -1e-5,-2.76413 0.422,-4.66315 1.26601,-5.69709 0.84401,-1.03389 1.97288,-1.55085 3.3866,-1.55087 1.43482,2e-5 2.52148,0.36928 3.26,1.10777 0.7596,0.73853 1.22381,2.05729 1.39262,3.9563 l -2.31048,0.56971 c -0.12661,-1.3504 -0.36926,-2.27881 -0.72796,-2.78524 -0.33761,-0.52749 -0.85457,-0.79124 -1.55087,-0.79126 -0.67522,2e-5 -1.21328,0.33762 -1.61418,1.01281 -0.40091,0.65413 -0.60136,1.8674 -0.60136,3.63981 l 0,9.81164" />
        <path
           inkscape:connector-curvature="0"
           id="path7662"
           style="font-variant:normal;font-stretch:normal;fill:#eeeeee;font-family:Pathway Gothic One;-inkscape-font-specification:Pathway Gothic One Semi-Light"
           d="m 487.18362,-299.0098 0,-22.15532 2.53203,0 0,22.15532 -2.53203,0" />
        <path
           inkscape:connector-curvature="0"
           id="path7664"
           style="font-variant:normal;font-stretch:normal;fill:#eeeeee;font-family:Pathway Gothic One;-inkscape-font-specification:Pathway Gothic One Semi-Light"
           d="m 503.13792,-314.55018 0,8.92544 c -1e-5,2.67974 -0.43257,4.53657 -1.29767,5.57048 -0.84402,1.01281 -2.06784,1.51922 -3.67145,1.51922 -1.58253,0 -2.80635,-0.50641 -3.67146,-1.51922 -0.84401,-1.03391 -1.26602,-2.89074 -1.26602,-5.57048 l 0,-8.92544 c 0,-2.67972 0.42201,-4.52599 1.26602,-5.53883 0.86511,-1.03389 2.08893,-1.55085 3.67146,-1.55087 1.60361,2e-5 2.82743,0.51698 3.67145,1.55087 0.8651,1.01284 1.29766,2.85911 1.29767,5.53883 m -2.50039,9.40019 0,-9.87494 c -1e-5,-3.03843 -0.81237,-4.55765 -2.43708,-4.55767 -0.78072,2e-5 -1.39263,0.32707 -1.83573,0.98116 -0.42201,0.65413 -0.63301,1.8463 -0.63301,3.57651 l 0,9.87494 c 0,1.73023 0.211,2.9224 0.63301,3.57651 0.4431,0.65411 1.05501,0.98116 1.83573,0.98116 1.62471,0 2.43707,-1.51922 2.43708,-4.55767" />
        <path
           inkscape:connector-curvature="0"
           id="path7666"
           style="font-variant:normal;font-stretch:normal;fill:#eeeeee;font-family:Pathway Gothic One;-inkscape-font-specification:Pathway Gothic One Semi-Light"
           d="m 509.12481,-299.0098 -2.46874,0 0,-22.15532 2.62699,0 5.15903,16.20504 0,-16.20504 2.46874,0 0,22.15532 -2.62699,0 -5.15903,-16.17339 0,16.17339" />
      </g>
    </a>
    <a
       id="a7668"
       xlink:href="http://equipo.reevo.org/projects/coordinacion-general"
       target="_parent"
       transform="matrix(0.31296311,0,0,0.31296311,180.31268,188.09924)">
      <path
         transform="matrix(5.5289005,0,0,6.0727267,-4741.6059,-1490.7307)"
         d="m 1033,357.99274 c 0,33.68937 -29.9969,61 -67,61 -37.00308,0 -67,-27.31063 -67,-61 0,-33.68937 29.99692,-61 67,-61 37.0031,0 67,27.31063 67,61 z"
         sodipodi:ry="61"
         sodipodi:rx="67"
         sodipodi:cy="357.99274"
         sodipodi:cx="966"
         id="path7670"
         style="fill:#aaaaaa;fill-opacity:1;stroke:none"
         sodipodi:type="arc" />
      <text
         xml:space="preserve"
         style="font-size:82.76096344px;font-style:normal;font-weight:normal;line-height:125%;letter-spacing:0px;word-spacing:0px;fill:#eeeeee;fill-opacity:0.99607843;stroke:none;font-family:Sans"
         x="604.54895"
         y="664.85504"
         id="text7686"
         sodipodi:linespacing="125%"><tspan
           sodipodi:role="line"
           id="tspan7688"
           x="604.54895"
           y="664.85504"
           style="font-style:normal;font-variant:normal;font-stretch:normal;text-align:center;text-anchor:middle;font-family:Pathway Gothic One;-inkscape-font-specification:Pathway Gothic One Semi-Light">COORDINACIN</tspan><tspan
           sodipodi:role="line"
           x="604.54895"
           y="768.30627"
           id="tspan7696"
           style="font-style:normal;font-variant:normal;font-stretch:normal;text-align:center;text-anchor:middle;font-family:Pathway Gothic One;-inkscape-font-specification:Pathway Gothic One Semi-Light">GENERAL</tspan></text>
    </a>
    <path
       sodipodi:end="4.5204028"
       sodipodi:start="4.2062435"
       transform="matrix(1.1710395,0,0,1.1710395,-803.16422,31.894862)"
       d="m 1171.0304,351.05543 a 2,0.5 0 0 1 0.588,-0.0535 l 0.3816,0.49082 z"
       sodipodi:ry="0.5"
       sodipodi:rx="2"
       sodipodi:cy="351.49274"
       sodipodi:cx="1172"
       id="path7690"
       style="fill:#ff9bff;fill-opacity:1;stroke:none"
       sodipodi:type="arc" />
    <text
       sodipodi:linespacing="125%"
       id="text7692"
       y="190.24678"
       x="334.76331"
       style="font-size:30.73165894px;font-style:normal;font-weight:normal;line-height:125%;letter-spacing:0px;word-spacing:0px;fill:#ffffff;fill-opacity:1;stroke:none;font-family:Sans"
       xml:space="preserve"><tspan
         style="font-style:normal;font-variant:normal;font-stretch:normal;fill:#ffffff;fill-opacity:1;font-family:Pathway Gothic One;-inkscape-font-specification:Pathway Gothic One Semi-Light"
         y="190.24678"
         x="334.76331"
         id="tspan7694"
         sodipodi:role="line">EQUIPO</tspan></text>
  </g>
</svg>
