<?xml version="1.0" encoding="UTF-8" standalone="no"?>
<svg
   xmlns:dc="http://purl.org/dc/elements/1.1/"
   xmlns:cc="http://creativecommons.org/ns#"
   xmlns:rdf="http://www.w3.org/1999/02/22-rdf-syntax-ns#"
   xmlns:svg="http://www.w3.org/2000/svg"
   xmlns="http://www.w3.org/2000/svg"
   xmlns:xlink="http://www.w3.org/1999/xlink"
   xmlns:sodipodi="http://sodipodi.sourceforge.net/DTD/sodipodi-0.dtd"
   xmlns:inkscape="http://www.inkscape.org/namespaces/inkscape"
   height="599.95007"
   width="600"
   style="font-size:12px;font-family:'lucida grande', 'lucida sans unicode', arial, helvetica, sans-serif"
   version="1.1"
   id="svg3777"
   viewBox="0 0 600 600"
   inkscape:version="0.91 r13725"
   sodipodi:docname="mapa2.svg">
   <defs>
 		<style type="text/css"><![CDATA[
      a {opacity: 0.8;}
      a:hover {opacity: 1;}
 		]]></style>
 	</defs>

  <metadata
     id="metadata3898">
    <rdf:RDF>
      <cc:Work
         rdf:about="">
        <dc:format>image/svg+xml</dc:format>
        <dc:type
           rdf:resource="http://purl.org/dc/dcmitype/StillImage" />
        <dc:title></dc:title>
      </cc:Work>
    </rdf:RDF>
  </metadata>
  <sodipodi:namedview
     pagecolor="#ffffff"
     bordercolor="#666666"
     borderopacity="1"
     objecttolerance="10"
     gridtolerance="10"
     guidetolerance="10"
     inkscape:pageopacity="0"
     inkscape:pageshadow="2"
     inkscape:window-width="1395"
     inkscape:window-height="1012"
     id="namedview3896"
     showgrid="false"
     inkscape:zoom="0.13272984"
     inkscape:cx="-877.7994"
     inkscape:cy="1159.6857"
     inkscape:window-x="0"
     inkscape:window-y="1080"
     inkscape:window-maximized="0"
     inkscape:current-layer="a5635"
     fit-margin-top="0"
     fit-margin-left="0"
     fit-margin-right="0"
     fit-margin-bottom="0" />
  <desc
     id="desc3779">Created with Highcharts 4.0.4</desc>
  <defs
     id="defs3781">
    <clipPath
       id="highcharts-16">
      <rect
         height="338"
         width="580"
         y="0"
         x="0"
         id="rect3784" />
    </clipPath>
  </defs>
  <g
     transform="translate(164.29697,-10028.314)"
     style="white-space:nowrap;opacity:0.8"
     class="highcharts-tooltip"
     id="g3882">
    <path
       transform="translate(1,1)"
       d="m 3,0 10,0 c 3,0 3,0 3,3 l 0,10 c 0,3 0,3 -3,3 L 3,16 C 0,16 0,16 0,13 L 0,3 C 0,0 0,0 3,0"
       id="path3884"
       inkscape:connector-curvature="0"
       style="fill:none;stroke:#000000;stroke-width:5;stroke-opacity:0.05" />
    <path
       transform="translate(1,1)"
       d="m 3,0 10,0 c 3,0 3,0 3,3 l 0,10 c 0,3 0,3 -3,3 L 3,16 C 0,16 0,16 0,13 L 0,3 C 0,0 0,0 3,0"
       id="path3886"
       inkscape:connector-curvature="0"
       style="fill:none;stroke:#000000;stroke-width:3;stroke-opacity:0.1" />
    <path
       transform="translate(1,1)"
       d="m 3,0 10,0 c 3,0 3,0 3,3 l 0,10 c 0,3 0,3 -3,3 L 3,16 C 0,16 0,16 0,13 L 0,3 C 0,0 0,0 3,0"
       id="path3888"
       inkscape:connector-curvature="0"
       style="fill:none;stroke:#000000;stroke-width:1;stroke-opacity:0.15" />
    <path
       d="m 3,0 10,0 c 3,0 3,0 3,3 l 0,10 c 0,3 0,3 -3,3 L 3,16 C 0,16 0,16 0,13 L 0,3 C 0,0 0,0 3,0"
       id="path3890"
       inkscape:connector-curvature="0"
       style="fill:#ffffff;fill-opacity:0.85" />
    <text
       y="21"
       style="color:#000000;font-size:12px;fill:#000000"
       x="8"
       id="text3892" />
  </g>
  <a
     id="a5618"
     xlink:href="http://equipo.reevo.org/projects/investigacion"
     target="_parent"
     transform="matrix(2.0932124,0,0,2.0932124,-3.0787235e-6,0)">
    <g
       transform="translate(-156.67972,-21.697266)"
       id="g4874"
       style="opacity:0.8">
      <path
         inkscape:connector-curvature="0"
         style="visibility:visible;fill:#eab101;fill-opacity:1;stroke:none;stroke-width:2.29999995;stroke-linejoin:round;stroke-miterlimit:4;stroke-dasharray:none"
         d="m 163.32227,121.91406 c -18.40586,58.38264 2.29063,121.98418 51.52929,158.35547 l 28.13282,-38.73437 c -24.51499,-17.99377 -39.08519,-46.54782 -39.11719,-77.00391 a 1.150115,1.150115 0 0 1 0,-0.004 c 0.0146,-9.52545 1.48962,-18.98276 4.29883,-28.08007 l -44.84375,-14.53321 z"
         id="path3798" />
      <path
         inkscape:connector-curvature="0"
         id="path4240"
         style="font-style:normal;font-variant:normal;font-weight:bold;font-stretch:normal;font-size:16.25px;line-height:110.00000238%;font-family:'Open Sans';-inkscape-font-specification:'Open Sans Bold';text-align:start;letter-spacing:0px;word-spacing:0px;writing-mode:lr-tb;text-anchor:start;fill:#ffffff;fill-opacity:1;stroke:none;stroke-width:1px;stroke-linecap:butt;stroke-linejoin:miter;stroke-opacity:1"
         d="m 174.16047,142.42938 11.44259,1.90658 -0.40427,2.42627 -11.44259,-1.90658 0.40427,-2.42627 z" />
      <path
         inkscape:connector-curvature="0"
         id="path4242"
         style="font-style:normal;font-variant:normal;font-weight:bold;font-stretch:normal;font-size:16.25px;line-height:110.00000238%;font-family:'Open Sans';-inkscape-font-specification:'Open Sans Bold';text-align:start;letter-spacing:0px;word-spacing:0px;writing-mode:lr-tb;text-anchor:start;fill:#ffffff;fill-opacity:1;stroke:none;stroke-width:1px;stroke-linecap:butt;stroke-linejoin:miter;stroke-opacity:1"
         d="m 172.28323,157.99769 0.2897,-3.11277 9.20549,-4.21148 0.007,-0.0711 q -2.3288,-0.0653 -3.31635,-0.15723 l -5.4355,-0.50585 0.20367,-2.18842 11.55043,1.07494 -0.28748,3.08907 -9.11786,4.21167 -0.005,0.0553 q 2.26265,0.091 3.1949,0.1778 l 5.4671,0.5088 -0.20514,2.20422 -11.55043,-1.07494 z" />
      <path
         inkscape:connector-curvature="0"
         id="path4244"
         style="font-style:normal;font-variant:normal;font-weight:bold;font-stretch:normal;font-size:16.25px;line-height:110.00000238%;font-family:'Open Sans';-inkscape-font-specification:'Open Sans Bold';text-align:start;letter-spacing:0px;word-spacing:0px;writing-mode:lr-tb;text-anchor:start;fill:#ffffff;fill-opacity:1;stroke:none;stroke-width:1px;stroke-linecap:butt;stroke-linejoin:miter;stroke-opacity:1"
         d="m 183.81306,167.52615 0.001,2.48352 -11.60248,-3.93719 -0.001,-2.68189 11.5982,-3.94183 10e-4,2.48352 -6.90189,2.18575 q -0.61087,0.18283 -1.42802,0.3737 -0.80922,0.1988 -1.12658,0.24658 0.73003,0.0869 2.55525,0.59371 l 6.90427,2.19413 z" />
      <path
         inkscape:connector-curvature="0"
         id="path4246"
         style="font-style:normal;font-variant:normal;font-weight:bold;font-stretch:normal;font-size:16.25px;line-height:110.00000238%;font-family:'Open Sans';-inkscape-font-specification:'Open Sans Bold';text-align:start;letter-spacing:0px;word-spacing:0px;writing-mode:lr-tb;text-anchor:start;fill:#ffffff;fill-opacity:1;stroke:none;stroke-width:1px;stroke-linecap:butt;stroke-linejoin:miter;stroke-opacity:1"
         d="m 172.87898,178.14348 -0.5225,-6.66045 11.56481,-0.90724 0.5225,6.66044 -2.00921,0.15762 -0.33013,-4.20826 -2.5392,0.19919 0.30718,3.91559 -2.00921,0.15762 -0.30717,-3.91559 -2.98218,0.23395 0.33014,4.20826 -2.02503,0.15887 z" />
      <path
         inkscape:connector-curvature="0"
         id="path4248"
         style="font-style:normal;font-variant:normal;font-weight:bold;font-stretch:normal;font-size:16.25px;line-height:110.00000238%;font-family:'Open Sans';-inkscape-font-specification:'Open Sans Bold';text-align:start;letter-spacing:0px;word-spacing:0px;writing-mode:lr-tb;text-anchor:start;fill:#ffffff;fill-opacity:1;stroke:none;stroke-width:1px;stroke-linecap:butt;stroke-linejoin:miter;stroke-opacity:1"
         d="m 177.38277,186.84614 q -1.55346,0.23439 -2.61716,-0.7526 -1.06251,-0.97915 -1.3632,-2.97197 -0.277,-1.83591 0.20034,-3.35232 l 2.25958,-0.34093 q -0.34262,1.2393 -0.43371,2.07153 -0.0899,0.84008 0.0107,1.50697 0.12075,0.80026 0.49066,1.17777 0.37109,0.38535 0.97521,0.2942 0.33737,-0.0509 0.56787,-0.27827 0.23835,-0.22855 0.42593,-0.634 0.18876,-0.3976 0.55299,-1.60004 0.33566,-1.12591 0.7114,-1.72024 0.37574,-0.59433 0.93251,-0.99931 0.55677,-0.40498 1.36489,-0.52691 1.52207,-0.22966 2.54803,0.66674 1.02714,0.90424 1.30178,2.72446 0.13495,0.89441 0.0451,1.73449 -0.0887,0.84792 -0.3394,1.7925 l -2.00921,-0.49928 q 0.2381,-0.97478 0.29601,-1.6014 0.0591,-0.61877 -0.0285,-1.19935 -0.10417,-0.69043 -0.48148,-1.01065 -0.37732,-0.32021 -0.89514,-0.24208 -0.32167,0.0485 -0.5424,0.2343 -0.21288,0.18458 -0.39187,0.54059 -0.16997,0.36267 -0.56707,1.66636 -0.5262,1.7244 -1.21297,2.43787 -0.67891,0.71229 -1.80086,0.88157 z" />
      <path
         inkscape:connector-curvature="0"
         id="path4250"
         style="font-style:normal;font-variant:normal;font-weight:bold;font-stretch:normal;font-size:16.25px;line-height:110.00000238%;font-family:'Open Sans';-inkscape-font-specification:'Open Sans Bold';text-align:start;letter-spacing:0px;word-spacing:0px;writing-mode:lr-tb;text-anchor:start;fill:#ffffff;fill-opacity:1;stroke:none;stroke-width:1px;stroke-linecap:butt;stroke-linejoin:miter;stroke-opacity:1"
         d="m 175.59482,193.75674 -0.54256,-2.39913 9.31792,-2.10724 -0.69483,-3.07244 1.9967,-0.45155 1.93222,8.544 -1.9967,0.45155 -0.69483,-3.07243 -9.31792,2.10724 z" />
      <path
         inkscape:connector-curvature="0"
         id="path4252"
         style="font-style:normal;font-variant:normal;font-weight:bold;font-stretch:normal;font-size:16.25px;line-height:110.00000238%;font-family:'Open Sans';-inkscape-font-specification:'Open Sans Bold';text-align:start;letter-spacing:0px;word-spacing:0px;writing-mode:lr-tb;text-anchor:start;fill:#ffffff;fill-opacity:1;stroke:none;stroke-width:1px;stroke-linecap:butt;stroke-linejoin:miter;stroke-opacity:1"
         d="m 176.82736,198.55207 11.14571,-3.21576 0.68186,2.36331 -11.14571,3.21576 -0.68186,-2.36331 z" />
      <path
         inkscape:connector-curvature="0"
         id="path4254"
         style="font-style:normal;font-variant:normal;font-weight:bold;font-stretch:normal;font-size:16.25px;line-height:110.00000238%;font-family:'Open Sans';-inkscape-font-specification:'Open Sans Bold';text-align:start;letter-spacing:0px;word-spacing:0px;writing-mode:lr-tb;text-anchor:start;fill:#ffffff;fill-opacity:1;stroke:none;stroke-width:1px;stroke-linecap:butt;stroke-linejoin:miter;stroke-opacity:1"
         d="m 185.94198,205.65674 1.5713,4.32549 -5.65297,2.05352 q -0.72504,-0.92692 -1.19793,-1.81037 -0.47763,-0.87329 -0.82981,-1.8428 -0.89673,-2.46851 0.076,-4.29919 0.98287,-1.82593 3.69749,-2.81205 2.64004,-0.95904 4.66392,0.011 2.02659,0.97751 2.99917,3.65484 0.60955,1.678 0.50457,3.48049 l -2.12857,-0.0963 q 0.16316,-1.40997 -0.30552,-2.70017 -0.54453,-1.499 -1.87914,-2.03566 -1.3346,-0.53665 -3.03496,0.081 -1.77495,0.64478 -2.45184,1.70953 -0.66672,1.0695 -0.16282,2.45664 0.26278,0.7234 0.68285,1.41499 l 2.27462,-0.82628 -0.75043,-2.0658 1.92409,-0.69895 z" />
      <path
         inkscape:connector-curvature="0"
         id="path4256"
         style="font-style:normal;font-variant:normal;font-weight:bold;font-stretch:normal;font-size:16.25px;line-height:110.00000238%;font-family:'Open Sans';-inkscape-font-specification:'Open Sans Bold';text-align:start;letter-spacing:0px;word-spacing:0px;writing-mode:lr-tb;text-anchor:start;fill:#ffffff;fill-opacity:1;stroke:none;stroke-width:1px;stroke-linecap:butt;stroke-linejoin:miter;stroke-opacity:1"
         d="m 185.48825,221.19034 2.14279,-1.93397 -1.79581,-3.82891 -2.85707,0.41103 -1.12533,-2.39936 12.2842,-1.23927 1.27695,2.72262 -8.8004,8.66722 -1.12533,-2.39936 z m 3.76123,-3.34157 q 2.90261,-2.64966 3.28398,-2.99504 0.38474,-0.3382 0.6164,-0.51696 -1.0307,0.1942 -5.18407,0.77501 l 1.28369,2.73699 z" />
      <path
         inkscape:connector-curvature="0"
         id="path4258"
         style="font-style:normal;font-variant:normal;font-weight:bold;font-stretch:normal;font-size:16.25px;line-height:110.00000238%;font-family:'Open Sans';-inkscape-font-specification:'Open Sans Bold';text-align:start;letter-spacing:0px;word-spacing:0px;writing-mode:lr-tb;text-anchor:start;fill:#ffffff;fill-opacity:1;stroke:none;stroke-width:1px;stroke-linecap:butt;stroke-linejoin:miter;stroke-opacity:1"
         d="m 198.24017,224.26065 q -0.69332,-1.20307 -1.98111,-1.34009 -1.28092,-0.14097 -2.89647,0.79005 -3.36173,1.93733 -1.90775,4.46034 0.61012,1.0587 2.00711,2.2592 l -1.78742,1.03007 q -1.22873,-0.94031 -2.10825,-2.46649 -1.26382,-2.19303 -0.60655,-4.11948 0.66415,-1.93042 3.15279,-3.36459 1.56743,-0.90329 3.07184,-1.01016 1.51127,-0.11083 2.75095,0.59422 1.25052,0.70797 2.07853,2.14478 0.84387,1.46431 0.98756,3.35044 l -2.1286,0.3109 q -0.0568,-0.71823 -0.18622,-1.40372 -0.12946,-0.6855 -0.44641,-1.23547 z" />
      <path
         inkscape:connector-curvature="0"
         id="path4260"
         style="font-style:normal;font-variant:normal;font-weight:bold;font-stretch:normal;font-size:16.25px;line-height:110.00000238%;font-family:'Open Sans';-inkscape-font-specification:'Open Sans Bold';text-align:start;letter-spacing:0px;word-spacing:0px;writing-mode:lr-tb;text-anchor:start;fill:#ffffff;fill-opacity:1;stroke:none;stroke-width:1px;stroke-linecap:butt;stroke-linejoin:miter;stroke-opacity:1"
         d="m 192.66694,233.72424 9.67613,-6.39846 1.35673,2.05171 -9.67614,6.39846 -1.35672,-2.05171 z" />
      <path
         inkscape:connector-curvature="0"
         id="path4262"
         style="font-style:normal;font-variant:normal;font-weight:bold;font-stretch:normal;font-size:16.25px;line-height:110.00000238%;font-family:'Open Sans';-inkscape-font-specification:'Open Sans Bold';text-align:start;letter-spacing:0px;word-spacing:0px;writing-mode:lr-tb;text-anchor:start;fill:#ffffff;fill-opacity:1;stroke:none;stroke-width:1px;stroke-linecap:butt;stroke-linejoin:miter;stroke-opacity:1"
         d="m 206.65068,243.04371 q -2.28268,1.75647 -4.37989,1.56812 -2.09722,-0.18836 -3.72304,-2.30126 -1.62582,-2.1129 -1.27056,-4.18836 0.35526,-2.07547 2.65052,-3.84162 2.29527,-1.76614 4.37361,-1.56327 2.08948,0.20432 3.72014,2.32351 1.63066,2.11918 1.27201,4.17724 -0.35381,2.06434 -2.64279,3.82564 z m -5.16295,-6.70971 q -1.54065,1.18549 -1.87041,2.37032 -0.32976,1.18483 0.56541,2.34818 1.79518,2.33299 4.89536,-0.0525 3.10646,-2.39035 1.32096,-4.71077 -0.89517,-1.16335 -2.13606,-1.14961 -1.2346,0.009 -2.77526,1.19439 z m 6.35547,-2.74787 0.16979,-0.13065 q 2.08995,0.11385 3.02991,0.0213 l 1.65486,2.15063 -0.13206,0.10161 q -0.57861,-0.0754 -1.836,-0.36932 -1.24626,-0.2925 -1.90423,-0.49704 l -0.98227,-1.27654 z" />
      <path
         inkscape:connector-curvature="0"
         id="path4264"
         style="font-style:normal;font-variant:normal;font-weight:bold;font-stretch:normal;font-size:16.25px;line-height:110.00000238%;font-family:'Open Sans';-inkscape-font-specification:'Open Sans Bold';text-align:start;letter-spacing:0px;word-spacing:0px;writing-mode:lr-tb;text-anchor:start;fill:#ffffff;fill-opacity:1;stroke:none;stroke-width:1px;stroke-linecap:butt;stroke-linejoin:miter;stroke-opacity:1"
         d="m 210.708,255.89788 -2.14932,-2.27016 2.90312,-9.69792 -0.0491,-0.0519 q -1.58457,1.70783 -2.30481,2.38972 l -3.96414,3.75314 -1.51108,-1.59603 8.42382,-7.97542 2.13296,2.25288 -2.8452,9.63216 0.0382,0.0403 q 1.5603,-1.64114 2.2402,-2.28485 l 3.98719,-3.77496 1.52199,1.60755 -8.42382,7.97542 z" />
    </g>
  </a>
  <a
     id="a5635"
     xlink:href="http://equipo.reevo.org/projects/comunicacion"
     target="_parent"
     transform="matrix(2.0932124,0,0,2.0932124,-3.0787235e-6,0)">
    <g
       transform="translate(-156.67972,-21.697266)"
       id="g4890"
       style="opacity:0.8">
      <path
         inkscape:connector-curvature="0"
         style="visibility:visible;fill:#003366;fill-opacity:1;stroke:none;stroke-width:2.29999995;stroke-linejoin:round;stroke-miterlimit:4;stroke-dasharray:none"
         d="m 354.89648,242.4375 c -16.15201,11.50903 -35.47036,17.75657 -55.32226,17.79688 a 1.150115,1.150115 0 0 1 -0.004,0 c -19.56678,-0.0276 -38.62675,-6.08457 -54.65234,-17.2793 l -28.08789,38.75 c 49.85018,35.52739 116.73394,35.47434 166.52734,-0.13281 L 354.89648,242.4375 Z"
         id="path3796" />
      <path
         inkscape:connector-curvature="0"
         id="path4266"
         style="font-style:normal;font-variant:normal;font-weight:bold;font-stretch:normal;font-size:16.25px;line-height:110.00000238%;font-family:'Open Sans';-inkscape-font-specification:'Open Sans Bold';text-align:start;letter-spacing:0px;word-spacing:0px;writing-mode:lr-tb;text-anchor:start;fill:#ffffff;fill-opacity:1;stroke:none;stroke-width:1px;stroke-linecap:butt;stroke-linejoin:miter;stroke-opacity:1"
         d="m 245.53504,269.04526 q -1.22701,-0.65001 -2.3904,-0.0811 -1.15969,0.56193 -2.03256,2.20963 -1.81632,3.42862 0.7569,4.79179 1.07977,0.57201 2.90129,0.84556 l -0.96573,1.82299 q -1.54065,-0.14272 -3.0972,-0.96731 -2.23666,-1.18487 -2.70473,-3.16582 -0.46436,-1.98795 0.88023,-4.52611 0.84688,-1.59862 2.06398,-2.48929 1.22083,-0.89769 2.64561,-0.96001 1.43552,-0.0656 2.90092,0.71068 1.49344,0.79116 2.61834,2.31193 l -1.63717,1.39546 q -0.43008,-0.57803 -0.90432,-1.08965 -0.47424,-0.51163 -1.03516,-0.80878 z" />
      <path
         inkscape:connector-curvature="0"
         id="path4268"
         style="font-style:normal;font-variant:normal;font-weight:bold;font-stretch:normal;font-size:16.25px;line-height:110.00000238%;font-family:'Open Sans';-inkscape-font-specification:'Open Sans Bold';text-align:start;letter-spacing:0px;word-spacing:0px;writing-mode:lr-tb;text-anchor:start;fill:#ffffff;fill-opacity:1;stroke:none;stroke-width:1px;stroke-linecap:butt;stroke-linejoin:miter;stroke-opacity:1"
         d="m 257.76949,278.79104 q -1.10846,2.65841 -3.02213,3.53683 -1.91368,0.87842 -4.37436,-0.1476 -2.46067,-1.02601 -3.18344,-3.00374 -0.72276,-1.97772 0.39181,-4.65078 1.11457,-2.67305 3.01908,-3.5295 1.91489,-0.86072 4.38289,0.16835 2.46801,1.02907 3.17918,2.99336 0.71849,1.96734 -0.39303,4.63308 z m -7.81411,-3.25821 q -0.74814,1.79424 -0.4457,2.98633 0.30243,1.1921 1.65726,1.75702 2.717,1.13289 4.22244,-2.47757 1.50848,-3.61778 -1.19387,-4.74456 -1.35484,-0.56492 -2.42494,0.0635 -1.06705,0.62106 -1.81519,2.41531 z" />
      <path
         inkscape:connector-curvature="0"
         id="path4270"
         style="font-style:normal;font-variant:normal;font-weight:bold;font-stretch:normal;font-size:16.25px;line-height:110.00000238%;font-family:'Open Sans';-inkscape-font-specification:'Open Sans Bold';text-align:start;letter-spacing:0px;word-spacing:0px;writing-mode:lr-tb;text-anchor:start;fill:#ffffff;fill-opacity:1;stroke:none;stroke-width:1px;stroke-linecap:butt;stroke-linejoin:miter;stroke-opacity:1"
         d="m 262.52638,286.37859 -0.13212,-9.51896 -0.0685,-0.02 q -0.63311,2.70817 -0.89313,3.59935 l -1.51121,5.17956 -2.1099,-0.6156 3.2491,-11.13603 3.21437,0.93783 0.15087,9.28473 0.0457,0.0133 5.28004,-7.70018 3.21437,0.93783 -3.2491,11.13604 -2.20131,-0.64226 1.53788,-5.27096 q 0.10889,-0.37323 0.25874,-0.8585 0.15747,-0.48304 0.86224,-2.55866 l -0.0686,-0.02 -5.41621,7.88362 -2.16323,-0.63115 z" />
      <path
         inkscape:connector-curvature="0"
         id="path4272"
         style="font-style:normal;font-variant:normal;font-weight:bold;font-stretch:normal;font-size:16.25px;line-height:110.00000238%;font-family:'Open Sans';-inkscape-font-specification:'Open Sans Bold';text-align:start;letter-spacing:0px;word-spacing:0px;writing-mode:lr-tb;text-anchor:start;fill:#ffffff;fill-opacity:1;stroke:none;stroke-width:1px;stroke-linecap:butt;stroke-linejoin:miter;stroke-opacity:1"
         d="m 283.93015,279.30585 -1.31969,7.38918 q -0.22599,1.26538 -0.96638,2.11648 -0.73258,0.8525 -1.89336,1.1691 -1.16078,0.31659 -2.62144,0.0557 -2.20269,-0.3934 -3.22032,-1.7358 -1.01624,-1.35021 -0.66609,-3.31077 l 1.31411,-7.35794 2.41359,0.43106 -1.24854,6.99082 q -0.23576,1.32006 0.18518,2.03199 0.42094,0.71193 1.64727,0.93094 1.18726,0.21205 1.82862,-0.31016 0.65056,-0.52862 0.88771,-1.85649 l 1.24575,-6.9752 2.41359,0.43106 z" />
      <path
         inkscape:connector-curvature="0"
         id="path4274"
         style="font-style:normal;font-variant:normal;font-weight:bold;font-stretch:normal;font-size:16.25px;line-height:110.00000238%;font-family:'Open Sans';-inkscape-font-specification:'Open Sans Bold';text-align:start;letter-spacing:0px;word-spacing:0px;writing-mode:lr-tb;text-anchor:start;fill:#ffffff;fill-opacity:1;stroke:none;stroke-width:1px;stroke-linecap:butt;stroke-linejoin:miter;stroke-opacity:1"
         d="m 294.97246,291.90644 -3.11679,-0.24262 -4.35012,-9.1408 -0.0712,-0.006 q -0.0301,2.32952 -0.10709,3.31835 l -0.42365,5.44252 -2.19125,-0.17057 0.90026,-11.56536 3.09306,0.24077 4.34899,9.05317 0.0554,0.004 q 0.0568,-2.26377 0.1295,-3.19723 l 0.42612,-5.47416 2.20706,0.1718 -0.90026,11.56536 z" />
      <path
         inkscape:connector-curvature="0"
         id="path4276"
         style="font-style:normal;font-variant:normal;font-weight:bold;font-stretch:normal;font-size:16.25px;line-height:110.00000238%;font-family:'Open Sans';-inkscape-font-specification:'Open Sans Bold';text-align:start;letter-spacing:0px;word-spacing:0px;writing-mode:lr-tb;text-anchor:start;fill:#ffffff;fill-opacity:1;stroke:none;stroke-width:1px;stroke-linecap:butt;stroke-linejoin:miter;stroke-opacity:1"
         d="m 297.89033,291.88429 0.0537,-11.60021 2.45969,0.0114 -0.0537,11.60022 -2.4597,-0.0114 z" />
      <path
         inkscape:connector-curvature="0"
         id="path4278"
         style="font-style:normal;font-variant:normal;font-weight:bold;font-stretch:normal;font-size:16.25px;line-height:110.00000238%;font-family:'Open Sans';-inkscape-font-specification:'Open Sans Bold';text-align:start;letter-spacing:0px;word-spacing:0px;writing-mode:lr-tb;text-anchor:start;fill:#ffffff;fill-opacity:1;stroke:none;stroke-width:1px;stroke-linecap:butt;stroke-linejoin:miter;stroke-opacity:1"
         d="m 307.6481,281.90841 q -1.38625,0.0799 -2.08646,1.16931 -0.70067,1.08152 -0.59343,2.94306 0.22317,3.87358 3.13034,3.70609 1.2199,-0.0703 2.91955,-0.78018 l 0.11866,2.05957 q -1.39163,0.67626 -3.15019,0.77757 -2.52693,0.14559 -3.95374,-1.30612 -1.42726,-1.45963 -1.59247,-4.32719 -0.10405,-1.80609 0.47539,-3.19853 0.57898,-1.40037 1.76527,-2.19196 1.19376,-0.79997 2.84934,-0.89535 1.68726,-0.0972 3.43738,0.62058 l -0.67714,2.04184 q -0.66735,-0.27151 -1.33807,-0.46336 -0.67071,-0.19184 -1.30443,-0.15533 z" />
      <path
         inkscape:connector-curvature="0"
         id="path4280"
         style="font-style:normal;font-variant:normal;font-weight:bold;font-stretch:normal;font-size:16.25px;line-height:110.00000238%;font-family:'Open Sans';-inkscape-font-specification:'Open Sans Bold';text-align:start;letter-spacing:0px;word-spacing:0px;writing-mode:lr-tb;text-anchor:start;fill:#ffffff;fill-opacity:1;stroke:none;stroke-width:1px;stroke-linecap:butt;stroke-linejoin:miter;stroke-opacity:1"
         d="m 320.64245,290.18347 -1.22551,-2.6134 -4.18607,0.60194 -0.43949,2.85283 -2.62317,0.3772 2.39468,-12.1121 2.97658,-0.42803 5.72615,10.94436 -2.62317,0.3772 z m -2.10032,-4.57182 q -1.68869,-3.54882 -1.90793,-4.0143 -0.21139,-0.46661 -0.31488,-0.74031 -0.11462,1.04255 -0.76949,5.18489 l 2.9923,-0.43028 z" />
      <path
         inkscape:connector-curvature="0"
         id="path4282"
         style="font-style:normal;font-variant:normal;font-weight:bold;font-stretch:normal;font-size:16.25px;line-height:110.00000238%;font-family:'Open Sans';-inkscape-font-specification:'Open Sans Bold';text-align:start;letter-spacing:0px;word-spacing:0px;writing-mode:lr-tb;text-anchor:start;fill:#ffffff;fill-opacity:1;stroke:none;stroke-width:1px;stroke-linecap:butt;stroke-linejoin:miter;stroke-opacity:1"
         d="m 327.28562,278.87592 q -1.35261,0.31388 -1.85786,1.50632 -0.50704,1.18471 -0.0855,3.00107 0.87707,3.77957 3.71369,3.12132 1.19029,-0.27621 2.74488,-1.26416 l 0.46633,2.00959 q -1.25673,0.90254 -2.97261,1.30072 -2.46561,0.57216 -4.11801,-0.61646 -1.65419,-1.19635 -2.30347,-3.99431 -0.40894,-1.76226 -0.0741,-3.23282 0.33303,-1.47829 1.36784,-2.45965 1.04074,-0.99089 2.65614,-1.36575 1.64632,-0.38204 3.49283,0.0284 l -0.32093,2.12711 q -0.70374,-0.15436 -1.39728,-0.22964 -0.69354,-0.0753 -1.31187,0.0682 z" />
      <path
         inkscape:connector-curvature="0"
         id="path4284"
         style="font-style:normal;font-variant:normal;font-weight:bold;font-stretch:normal;font-size:16.25px;line-height:110.00000238%;font-family:'Open Sans';-inkscape-font-specification:'Open Sans Bold';text-align:start;letter-spacing:0px;word-spacing:0px;writing-mode:lr-tb;text-anchor:start;fill:#ffffff;fill-opacity:1;stroke:none;stroke-width:1px;stroke-linecap:butt;stroke-linejoin:miter;stroke-opacity:1"
         d="m 334.72137,286.95644 -3.31845,-11.11557 2.35692,-0.70363 3.31845,11.11556 -2.35692,0.70364 z" />
      <path
         inkscape:connector-curvature="0"
         id="path4286"
         style="font-style:normal;font-variant:normal;font-weight:bold;font-stretch:normal;font-size:16.25px;line-height:110.00000238%;font-family:'Open Sans';-inkscape-font-specification:'Open Sans Bold';text-align:start;letter-spacing:0px;word-spacing:0px;writing-mode:lr-tb;text-anchor:start;fill:#ffffff;fill-opacity:1;stroke:none;stroke-width:1px;stroke-linecap:butt;stroke-linejoin:miter;stroke-opacity:1"
         d="m 347.68976,276.27079 q 1.02069,2.69333 0.23347,4.64629 -0.78723,1.95296 -3.28023,2.89773 -2.49299,0.94478 -4.37684,0.004 -1.88384,-0.94069 -2.91016,-3.64886 -1.02632,-2.70817 -0.23066,-4.63887 0.80027,-1.94093 3.30069,-2.88852 2.50041,-0.94759 4.36661,-0.009 1.87361,0.93609 2.89712,3.63684 z m -7.91675,3.00023 q 0.6889,1.81781 1.72759,2.47635 1.03869,0.65853 2.41133,0.13834 2.75268,-1.04319 1.36644,-4.70107 -1.38904,-3.6653 -4.12689,-2.62773 -1.37263,0.52019 -1.7186,1.71195 -0.34878,1.18435 0.34013,3.00216 z" />
      <path
         inkscape:connector-curvature="0"
         id="path4288"
         style="font-style:normal;font-variant:normal;font-weight:bold;font-stretch:normal;font-size:16.25px;line-height:110.00000238%;font-family:'Open Sans';-inkscape-font-specification:'Open Sans Bold';text-align:start;letter-spacing:0px;word-spacing:0px;writing-mode:lr-tb;text-anchor:start;fill:#ffffff;fill-opacity:1;stroke:none;stroke-width:1px;stroke-linecap:butt;stroke-linejoin:miter;stroke-opacity:1"
         d="m 361.16634,276.10332 -2.79467,1.40109 -8.44422,-5.58327 -0.0638,0.032 q 1.1767,2.0107 1.62121,2.89733 l 2.44659,4.88004 -1.96479,0.98503 -5.19899,-10.37007 2.77339,-1.39043 8.39802,5.50881 0.0497,-0.0249 q -1.11988,-1.96818 -1.5395,-2.80516 l -2.46081,-4.90841 1.97897,-0.99215 5.19899,10.37008 z" />
    </g>
  </a>
  <a
     id="a5651"
     xlink:href="http://equipo.reevo.org/projects/desarrollo"
     target="_parent"
     transform="matrix(2.0932124,0,0,2.0932124,-3.0787235e-6,0)">
    <g
       transform="translate(-156.67972,-21.697266)"
       id="g4905"
       style="opacity:0.8">
      <path
         inkscape:connector-curvature="0"
         style="visibility:visible;fill:#6600cc;fill-opacity:1;stroke:none;stroke-width:2.29999995;stroke-linejoin:round;stroke-miterlimit:4;stroke-dasharray:none"
         d="m 436.65234,121.83203 -45.67382,14.83203 c 2.78772,9.02707 4.26242,18.40946 4.29882,27.86133 a 1.150115,1.150115 0 0 1 0,0.006 c -0.0443,30.15325 -14.34039,58.45624 -38.45898,76.47852 l 28.51367,39.12304 c 49.13877,-36.41809 69.745,-99.97895 51.32031,-158.30078 z"
         id="path3794" />
      <path
         inkscape:connector-curvature="0"
         id="path4290"
         style="font-style:normal;font-variant:normal;font-weight:bold;font-stretch:normal;font-size:16.25px;line-height:110.00000238%;font-family:'Open Sans';-inkscape-font-specification:'Open Sans Bold';text-align:start;letter-spacing:0px;word-spacing:0px;writing-mode:lr-tb;text-anchor:start;fill:#ffffff;fill-opacity:1;stroke:none;stroke-width:1px;stroke-linecap:butt;stroke-linejoin:miter;stroke-opacity:1"
         d="m 384.23323,251.73833 q 1.90613,2.13807 1.69985,4.36293 -0.20036,2.21957 -2.49834,4.26826 l -2.45197,2.18597 -7.71955,-8.65889 2.71849,-2.42358 q 2.1203,-1.89029 4.29093,-1.81637 2.17063,0.0739 3.96059,2.08168 z m -1.86485,1.74758 q -2.48694,-2.78956 -4.95076,-0.59302 l -0.97723,0.87122 5.02668,5.63835 0.78771,-0.70226 q 2.65335,-2.3655 0.1136,-5.21429 z" />
      <path
         inkscape:connector-curvature="0"
         id="path4292"
         style="font-style:normal;font-variant:normal;font-weight:bold;font-stretch:normal;font-size:16.25px;line-height:110.00000238%;font-family:'Open Sans';-inkscape-font-specification:'Open Sans Bold';text-align:start;letter-spacing:0px;word-spacing:0px;writing-mode:lr-tb;text-anchor:start;fill:#ffffff;fill-opacity:1;stroke:none;stroke-width:1px;stroke-linecap:butt;stroke-linejoin:miter;stroke-opacity:1"
         d="m 394.44224,249.57375 -4.60224,4.84293 -8.40897,-7.99106 4.60224,-4.84293 1.46093,1.38833 -2.90783,3.0599 1.84629,1.75453 2.7056,-2.84709 1.46093,1.38833 -2.7056,2.84709 2.16839,2.06062 2.90783,-3.0599 1.47243,1.39925 z" />
      <path
         inkscape:connector-curvature="0"
         id="path4294"
         style="font-style:normal;font-variant:normal;font-weight:bold;font-stretch:normal;font-size:16.25px;line-height:110.00000238%;font-family:'Open Sans';-inkscape-font-specification:'Open Sans Bold';text-align:start;letter-spacing:0px;word-spacing:0px;writing-mode:lr-tb;text-anchor:start;fill:#ffffff;fill-opacity:1;stroke:none;stroke-width:1px;stroke-linecap:butt;stroke-linejoin:miter;stroke-opacity:1"
         d="m 397.90454,240.40697 q 1.21268,0.99879 1.18954,2.44968 -0.0181,1.44477 -1.29938,3.00043 -1.18039,1.43316 -2.62735,2.09169 l -1.7639,-1.45279 q 1.1508,-0.57352 1.8307,-1.06203 0.68494,-0.49464 1.11371,-1.01524 0.51453,-0.62471 0.54807,-1.15217 0.0386,-0.53359 -0.43302,-0.92201 -0.26336,-0.21691 -0.58654,-0.23638 -0.3293,-0.0245 -0.75625,0.10696 -0.42191,0.12536 -1.55974,0.65816 -1.0618,0.5029 -1.75501,0.62068 -0.6932,0.11778 -1.36658,-0.0257 -0.67337,-0.14343 -1.30421,-0.66301 -1.18818,-0.97861 -1.2072,-2.34087 -0.014,-1.36838 1.15633,-2.7893 0.57507,-0.69821 1.26001,-1.19285 0.68998,-0.50077 1.56011,-0.94568 l 0.9716,1.82817 q -0.88418,0.47445 -1.38897,0.85021 -0.49975,0.36963 -0.87303,0.82285 -0.44391,0.53897 -0.42989,1.03365 0.014,0.49468 0.41825,0.82761 0.25111,0.20682 0.53682,0.24683 0.27958,0.035 0.66402,-0.0699 0.38335,-0.11599 1.61846,-0.69202 1.63432,-0.7612 2.62404,-0.72728 0.98359,0.0289 1.85941,0.75023 z" />
      <path
         inkscape:connector-curvature="0"
         id="path4296"
         style="font-style:normal;font-variant:normal;font-weight:bold;font-stretch:normal;font-size:16.25px;line-height:110.00000238%;font-family:'Open Sans';-inkscape-font-specification:'Open Sans Bold';text-align:start;letter-spacing:0px;word-spacing:0px;writing-mode:lr-tb;text-anchor:start;fill:#ffffff;fill-opacity:1;stroke:none;stroke-width:1px;stroke-linecap:butt;stroke-linejoin:miter;stroke-opacity:1"
         d="m 405.74033,234.96227 -2.74546,-0.8912 -2.42116,3.46749 1.78245,2.27039 -1.5172,2.17288 -7.20631,-10.0253 1.72162,-2.46563 11.90326,3.2985 -1.5172,2.17287 z m -4.77307,-1.59084 q -3.7449,-1.19228 -4.23456,-1.35031 -0.48511,-0.16453 -0.75565,-0.27602 0.68281,0.79613 3.25952,4.10497 l 1.73069,-2.47864 z" />
      <path
         inkscape:connector-curvature="0"
         id="path4298"
         style="font-style:normal;font-variant:normal;font-weight:bold;font-stretch:normal;font-size:16.25px;line-height:110.00000238%;font-family:'Open Sans';-inkscape-font-specification:'Open Sans Bold';text-align:start;letter-spacing:0px;word-spacing:0px;writing-mode:lr-tb;text-anchor:start;fill:#ffffff;fill-opacity:1;stroke:none;stroke-width:1px;stroke-linecap:butt;stroke-linejoin:miter;stroke-opacity:1"
         d="m 403.61657,226.16745 0.39622,-0.68745 q 0.58244,-1.01055 0.52295,-1.68591 -0.0595,-0.67536 -0.78131,-1.09139 -0.71494,-0.41207 -1.3027,-0.0914 -0.58379,0.31375 -1.17813,1.34492 l -0.37245,0.6462 2.71542,1.56508 z m 1.73236,0.99847 3.85657,2.22281 -1.22828,2.13108 -10.05047,-5.79276 1.68791,-2.92852 q 1.18074,-2.04859 2.49665,-2.59976 1.30904,-0.55513 2.8283,0.32052 0.8868,0.51113 1.29981,1.3994 0.40613,0.88431 0.28288,2.00384 4.69664,-0.3152 6.08279,-0.43209 l -1.36301,2.36482 -5.23938,0.17638 -0.65377,1.13428 z" />
      <path
         inkscape:connector-curvature="0"
         id="path4300"
         style="font-style:normal;font-variant:normal;font-weight:bold;font-stretch:normal;font-size:16.25px;line-height:110.00000238%;font-family:'Open Sans';-inkscape-font-specification:'Open Sans Bold';text-align:start;letter-spacing:0px;word-spacing:0px;writing-mode:lr-tb;text-anchor:start;fill:#ffffff;fill-opacity:1;stroke:none;stroke-width:1px;stroke-linecap:butt;stroke-linejoin:miter;stroke-opacity:1"
         d="m 408.42847,217.19906 0.33651,-0.71857 q 0.49466,-1.0563 0.37812,-1.72418 -0.11655,-0.66788 -0.87105,-1.02121 -0.74731,-0.34997 -1.30576,0.0193 -0.55509,0.36212 -1.05984,1.43997 l -0.31632,0.67545 2.83834,1.3292 z m 1.81079,0.84799 4.03117,1.88779 -1.04317,2.22755 -10.50545,-4.91969 1.43351,-3.0611 q 1.00278,-2.14133 2.26722,-2.80209 1.25725,-0.66412 2.84529,0.0795 0.92695,0.43409 1.41378,1.28414 0.47965,0.84669 0.45178,1.97264 4.653,-0.71231 6.02424,-0.94631 l -1.15757,2.47187 -5.20556,0.62001 -0.55524,1.18564 z" />
      <path
         inkscape:connector-curvature="0"
         id="path4302"
         style="font-style:normal;font-variant:normal;font-weight:bold;font-stretch:normal;font-size:16.25px;line-height:110.00000238%;font-family:'Open Sans';-inkscape-font-specification:'Open Sans Bold';text-align:start;letter-spacing:0px;word-spacing:0px;writing-mode:lr-tb;text-anchor:start;fill:#ffffff;fill-opacity:1;stroke:none;stroke-width:1px;stroke-linecap:butt;stroke-linejoin:miter;stroke-opacity:1"
         d="m 415.78328,200.53205 q 2.71099,0.9728 3.68493,2.83968 0.97394,1.86687 0.0735,4.37622 -0.90044,2.50935 -2.83914,3.33107 -1.9387,0.82171 -4.66463,-0.15645 -2.72594,-0.97816 -3.67747,-2.837 -0.95632,-1.86898 -0.0532,-4.3858 0.90313,-2.51682 2.829,-3.32627 1.92855,-0.81693 4.64702,0.15855 z m -2.85945,7.96868 q 1.82973,0.65658 3.00503,0.29433 1.1753,-0.36225 1.67108,-1.74388 0.99424,-2.77074 -2.68763,-4.09193 -3.68934,-1.32387 -4.67822,1.43194 -0.49578,1.38163 0.18584,2.41864 0.67416,1.03433 2.5039,1.6909 z" />
      <path
         inkscape:connector-curvature="0"
         id="path4304"
         style="font-style:normal;font-variant:normal;font-weight:bold;font-stretch:normal;font-size:16.25px;line-height:110.00000238%;font-family:'Open Sans';-inkscape-font-specification:'Open Sans Bold';text-align:start;letter-spacing:0px;word-spacing:0px;writing-mode:lr-tb;text-anchor:start;fill:#ffffff;fill-opacity:1;stroke:none;stroke-width:1px;stroke-linecap:butt;stroke-linejoin:miter;stroke-opacity:1"
         d="m 421.87684,200.14987 -11.21684,-2.95811 0.62724,-2.3784 9.25274,2.44014 1.19984,-4.54965 1.96409,0.51798 -1.82707,6.92804 z" />
      <path
         inkscape:connector-curvature="0"
         id="path4306"
         style="font-style:normal;font-variant:normal;font-weight:bold;font-stretch:normal;font-size:16.25px;line-height:110.00000238%;font-family:'Open Sans';-inkscape-font-specification:'Open Sans Bold';text-align:start;letter-spacing:0px;word-spacing:0px;writing-mode:lr-tb;text-anchor:start;fill:#ffffff;fill-opacity:1;stroke:none;stroke-width:1px;stroke-linecap:butt;stroke-linejoin:miter;stroke-opacity:1"
         d="m 424.11466,191.25386 -11.39852,-2.15448 0.45683,-2.41692 9.40261,1.77722 0.87387,-4.62334 1.99591,0.37726 -1.3307,7.04026 z" />
      <path
         inkscape:connector-curvature="0"
         id="path4308"
         style="font-style:normal;font-variant:normal;font-weight:bold;font-stretch:normal;font-size:16.25px;line-height:110.00000238%;font-family:'Open Sans';-inkscape-font-specification:'Open Sans Bold';text-align:start;letter-spacing:0px;word-spacing:0px;writing-mode:lr-tb;text-anchor:start;fill:#ffffff;fill-opacity:1;stroke:none;stroke-width:1px;stroke-linecap:butt;stroke-linejoin:miter;stroke-opacity:1"
         d="m 421.05261,171.16595 q 2.86556,0.2905 4.26086,1.8675 1.3953,1.57699 1.12641,4.22941 -0.2689,2.65243 -1.9523,3.91731 -1.68341,1.26488 -4.56475,0.97278 -2.88135,-0.29211 -4.25297,-1.8667 -1.37871,-1.58329 -1.10902,-4.24361 0.2697,-2.66031 1.94361,-3.91021 1.67471,-1.25779 4.54816,-0.96648 z m -0.8539,8.42301 q 1.93405,0.19607 2.98735,-0.43884 1.0533,-0.63492 1.20135,-2.09533 0.29691,-2.92871 -3.59489,-3.32326 -3.89969,-0.39534 -4.195,2.51759 -0.14805,1.46041 0.76349,2.30249 0.90364,0.84128 2.8377,1.03735 z" />
      <path
         inkscape:connector-curvature="0"
         id="path4310"
         style="font-style:normal;font-variant:normal;font-weight:bold;font-stretch:normal;font-size:16.25px;line-height:110.00000238%;font-family:'Open Sans';-inkscape-font-specification:'Open Sans Bold';text-align:start;letter-spacing:0px;word-spacing:0px;writing-mode:lr-tb;text-anchor:start;fill:#ffffff;fill-opacity:1;stroke:none;stroke-width:1px;stroke-linecap:butt;stroke-linejoin:miter;stroke-opacity:1"
         d="m 426.58698,153.81295 0.12562,2.79808 -6.01717,1.84275 q -0.32107,0.10179 -1.32607,0.36135 -1.01327,0.252 -1.36062,0.29936 0.43017,0.0283 1.3899,0.17588 0.9518,0.14789 1.36069,0.23279 l 6.14186,1.28896 0.12526,2.79016 -11.45594,3.47686 -0.10853,-2.41761 6.25887,-1.76623 q 1.73434,-0.46705 3.01062,-0.69908 -0.45395,-0.0273 -1.40469,-0.15139 -0.95902,-0.13168 -1.48893,-0.2588 l -6.56767,-1.39693 -0.10426,-2.32249 6.41608,-1.9798 q 0.43098,-0.13054 1.31921,-0.33721 0.88823,-0.20667 1.52637,-0.32268 -0.62183,-0.0515 -1.54915,-0.18462 -0.93524,-0.13275 -1.51236,-0.24981 l -6.3916,-1.19038 -0.10853,-2.41761 11.72104,2.42845 z" />
      <path
         inkscape:connector-curvature="0"
         id="path4312"
         style="font-style:normal;font-variant:normal;font-weight:bold;font-stretch:normal;font-size:16.25px;line-height:110.00000238%;font-family:'Open Sans';-inkscape-font-specification:'Open Sans Bold';text-align:start;letter-spacing:0px;word-spacing:0px;writing-mode:lr-tb;text-anchor:start;fill:#ffffff;fill-opacity:1;stroke:none;stroke-width:1px;stroke-linecap:butt;stroke-linejoin:miter;stroke-opacity:1"
         d="m 425.13215,142.81183 0.95239,6.61267 -11.48187,1.65368 -0.95239,-6.61267 1.9948,-0.28731 0.60175,4.17808 2.52098,-0.36308 -0.5599,-3.8875 1.9948,-0.2873 0.5599,3.8875 2.96078,-0.42643 -0.60175,-4.17808 2.01051,-0.28956 z" />
      <path
         inkscape:connector-curvature="0"
         id="path4314"
         style="font-style:normal;font-variant:normal;font-weight:bold;font-stretch:normal;font-size:16.25px;line-height:110.00000238%;font-family:'Open Sans';-inkscape-font-specification:'Open Sans Bold';text-align:start;letter-spacing:0px;word-spacing:0px;writing-mode:lr-tb;text-anchor:start;fill:#ffffff;fill-opacity:1;stroke:none;stroke-width:1px;stroke-linecap:butt;stroke-linejoin:miter;stroke-opacity:1"
         d="m 413.39134,142.97468 -0.7957,-3.52146 q -0.54386,-2.40697 -0.0999,-3.64613 0.43449,-1.24516 1.92821,-1.58267 1.01387,-0.22909 1.77241,0.10386 0.75679,0.32521 1.06673,1.0849 l 0.0774,-0.0175 q -0.003,-1.12999 0.54802,-1.75075 0.54943,-0.62849 1.64069,-0.87506 1.54789,-0.34976 2.66828,0.5766 1.11865,0.91862 1.55234,2.838 l 0.95658,4.23349 -11.31508,2.55671 z m 3.93902,-3.41178 -0.31478,-1.3931 q -0.22034,-0.97517 -0.62011,-1.34038 -0.40152,-0.37295 -1.09807,-0.21556 -0.65012,0.1469 -0.82031,0.6897 -0.17969,0.53682 0.0529,1.56616 l 0.28505,1.26153 2.51532,-0.56835 z m 1.90391,-0.4302 2.94873,-0.66628 -0.35325,-1.56337 q -0.22384,-0.99065 -0.70975,-1.37707 -0.48591,-0.38641 -1.2676,-0.20979 -1.40858,0.31828 -0.9539,2.33054 l 0.33577,1.48597 z" />
    </g>
  </a>
  <text
     sodipodi:linespacing="110%"
     id="text4738"
     style="font-style:normal;font-variant:normal;font-weight:bold;font-stretch:normal;font-size:16.25px;line-height:110.00000238%;font-family:'Open Sans';-inkscape-font-specification:'Open Sans Bold';text-align:start;letter-spacing:0px;word-spacing:0px;writing-mode:lr-tb;text-anchor:start;fill:#ffffff;fill-opacity:1;stroke:none;stroke-width:1px;stroke-linecap:butt;stroke-linejoin:miter;stroke-opacity:1"
     xml:space="preserve"
     transform="matrix(0.82998522,0.55778539,0.55778539,-0.82998522,0,-328.56679)"
     x="344.12344"
     y="-290.72299"><textPath
       id="textPath4740"
       xlink:href="#circle3916"></textPath></text>
  <a
     id="a5600"
     xlink:href="http://equipo.reevo.org/projects/financiamiento"
     target="_parent"
     transform="matrix(2.0932124,0,0,2.0932124,-3.0787235e-6,0)">
    <g
       id="g5583"
       style="opacity:0.8">
      <path
         inkscape:connector-curvature="0"
         style="visibility:visible;fill:#ff55dd;fill-opacity:1;stroke:none;stroke-width:2.29999995;stroke-linejoin:round;stroke-miterlimit:4;stroke-dasharray:none"
         d="M 141.97067,0 C 80.81148,0.575251 26.77636,39.880315 7.39645,97.890624 L 52.22458,112.4707 C 65.17003,73.787481 101.22339,47.549195 142.03512,47.162109 L 141.97072,0 Z"
         id="path3800" />
      <path
         inkscape:connector-curvature="0"
         id="path4317"
         style="font-style:normal;font-variant:normal;font-weight:bold;font-stretch:normal;font-size:medium;line-height:125%;font-family:'Open Sans';-inkscape-font-specification:'Open Sans Bold';letter-spacing:-0.64999998px;word-spacing:0px;fill:#ffffff;fill-opacity:1;stroke:none;stroke-width:1px;stroke-linecap:butt;stroke-linejoin:miter;stroke-opacity:1"
         d="m 36.7455,100.63444 -0.90399,2.24487 -10.76063,-4.333216 2.48375,-6.16786 1.86949,0.75283 -1.57975,3.92299 2.7748,1.11739 1.47009,-3.65066 1.86213,0.74986 -1.47009,3.65067 4.2542,1.713126 z" />
      <path
         inkscape:connector-curvature="0"
         id="path4319"
         style="font-style:normal;font-variant:normal;font-weight:bold;font-stretch:normal;font-size:medium;line-height:125%;font-family:'Open Sans';-inkscape-font-specification:'Open Sans Bold';letter-spacing:-0.64999998px;word-spacing:0px;fill:#ffffff;fill-opacity:1;stroke:none;stroke-width:1px;stroke-linecap:butt;stroke-linejoin:miter;stroke-opacity:1"
         d="m 39.03483,95.252664 -10.4991,-4.93324 1.04604,-2.22621 10.49909,4.93324 -1.04603,2.22621 z" />
      <path
         inkscape:connector-curvature="0"
         id="path4321"
         style="font-style:normal;font-variant:normal;font-weight:bold;font-stretch:normal;font-size:medium;line-height:125%;font-family:'Open Sans';-inkscape-font-specification:'Open Sans Bold';letter-spacing:-0.64999998px;word-spacing:0px;fill:#ffffff;fill-opacity:1;stroke:none;stroke-width:1px;stroke-linecap:butt;stroke-linejoin:miter;stroke-opacity:1"
         d="m 46.06796,81.968954 -1.53975,2.72074 -10.1229,0.0696 -0.0352,0.0622 q 2.09755,1.01384 2.96072,1.50234 l 4.75094,2.68871 -1.08252,1.9128 -10.09573,-5.7135 1.52802,-2.70002 10.04303,-0.10569 0.0273,-0.0483 q -2.02666,-1.0102 -2.8415,-1.47135 l -4.77856,-2.704333 1.09033,-1.926615 10.09574,5.713498 z" />
      <path
         inkscape:connector-curvature="0"
         id="path4323"
         style="font-style:normal;font-variant:normal;font-weight:bold;font-stretch:normal;font-size:medium;line-height:125%;font-family:'Open Sans';-inkscape-font-specification:'Open Sans Bold';letter-spacing:-0.64999998px;word-spacing:0px;fill:#ffffff;fill-opacity:1;stroke:none;stroke-width:1px;stroke-linecap:butt;stroke-linejoin:miter;stroke-opacity:1"
         d="m 51.43434,74.287542 -2.73899,-0.910879 -2.44598,3.450028 1.76611,2.283123 -1.53275,2.16193 -7.13418,-10.07676 1.73926,-2.453209 11.87929,3.383836 -1.53276,2.161931 z m -4.76152,-1.625049 q -3.73625,-1.219127 -4.22476,-1.380665 -0.48392,-0.168012 -0.75366,-0.281436 0.67709,0.801006 3.22998,4.128256 l 1.74844,-2.466155 z" />
      <path
         inkscape:connector-curvature="0"
         id="path4325"
         style="font-style:normal;font-variant:normal;font-weight:bold;font-stretch:normal;font-size:medium;line-height:125%;font-family:'Open Sans';-inkscape-font-specification:'Open Sans Bold';letter-spacing:-0.64999998px;word-spacing:0px;fill:#ffffff;fill-opacity:1;stroke:none;stroke-width:1px;stroke-linecap:butt;stroke-linejoin:miter;stroke-opacity:1"
         d="m 60.26322,63.757481 -2.05817,2.35313 -9.9278,-1.979029 -0.047,0.05375 q 1.84917,1.417087 2.59572,2.070057 l 4.10902,3.59395 -1.44698,1.654358 -8.73167,-7.637143 2.04249,-2.335213 9.85688,1.92754 0.0366,-0.04181 q -1.7805,-1.399187 -2.48524,-2.015591 l -4.13291,-3.614845 1.45743,-1.666302 8.73167,7.637142 z" />
      <path
         inkscape:connector-curvature="0"
         id="path4327"
         style="font-style:normal;font-variant:normal;font-weight:bold;font-stretch:normal;font-size:medium;line-height:125%;font-family:'Open Sans';-inkscape-font-specification:'Open Sans Bold';letter-spacing:-0.64999998px;word-spacing:0px;fill:#ffffff;fill-opacity:1;stroke:none;stroke-width:1px;stroke-linecap:butt;stroke-linejoin:miter;stroke-opacity:1"
         d="m 58.82456,51.716794 q -1.01195,0.9508 -0.84991,2.235684 0.15662,1.279101 1.43341,2.63801 2.6568,2.827686 4.77901,0.833722 0.89052,-0.836704 1.73856,-2.471822 l 1.41262,1.503473 q -0.63338,1.411661 -1.91712,2.617819 -1.84465,1.733173 -3.8705,1.535334 -2.03129,-0.203621 -3.99809,-2.296918 -1.23875,-1.318431 -1.68787,-2.758204 -0.45454,-1.445557 -0.0527,-2.81391 0.40224,-1.379569 1.6108,-2.515096 1.23169,-1.15726 3.03456,-1.729779 l 0.7909,2.000527 q -0.68607,0.219997 -1.32359,0.503253 -0.63751,0.283256 -1.10012,0.717907 z" />
      <path
         inkscape:connector-curvature="0"
         id="path4329"
         style="font-style:normal;font-variant:normal;font-weight:bold;font-stretch:normal;font-size:medium;line-height:125%;font-family:'Open Sans';-inkscape-font-specification:'Open Sans Bold';letter-spacing:-0.64999998px;word-spacing:0px;fill:#ffffff;fill-opacity:1;stroke:none;stroke-width:1px;stroke-linecap:butt;stroke-linejoin:miter;stroke-opacity:1"
         d="m 69.05733,55.645964 -7.39208,-8.940086 1.89564,-1.567403 7.39208,8.940085 -1.89564,1.567404 z" />
      <path
         inkscape:connector-curvature="0"
         id="path4331"
         style="font-style:normal;font-variant:normal;font-weight:bold;font-stretch:normal;font-size:medium;line-height:125%;font-family:'Open Sans';-inkscape-font-specification:'Open Sans Bold';letter-spacing:-0.64999998px;word-spacing:0px;fill:#ffffff;fill-opacity:1;stroke:none;stroke-width:1px;stroke-linecap:butt;stroke-linejoin:miter;stroke-opacity:1"
         d="m 78.46719,48.454294 -2.29591,-1.749447 -3.43214,2.47102 0.93079,2.732292 -2.15072,1.548445 -3.48307,-11.845073 2.44049,-1.757067 10.14128,7.051386 -2.15072,1.548444 z M 74.4894,45.373702 q -3.13943,-2.364279 -3.54921,-2.67543 -0.40335,-0.315786 -0.62176,-0.510512 0.38092,0.977218 1.7176,4.952281 l 2.45337,-1.766339 z" />
      <path
         inkscape:connector-curvature="0"
         id="path4333"
         style="font-style:normal;font-variant:normal;font-weight:bold;font-stretch:normal;font-size:medium;line-height:125%;font-family:'Open Sans';-inkscape-font-specification:'Open Sans Bold';letter-spacing:-0.64999998px;word-spacing:0px;fill:#ffffff;fill-opacity:1;stroke:none;stroke-width:1px;stroke-linecap:butt;stroke-linejoin:miter;stroke-opacity:1"
         d="m 85.56282,44.025619 -6.9067,-6.551765 -0.0622,0.03511 q 1.49668,2.344134 1.95311,3.152522 l 2.65278,4.698326 -1.91387,1.080618 -5.70348,-10.101399 2.91572,-1.646285 6.75211,6.374802 0.0415,-0.02341 -1.82577,-9.15632 2.91573,-1.646285 5.70348,10.101399 -1.99679,1.127432 -2.6996,-4.781237 q -0.19115,-0.338556 -0.43392,-0.784652 -0.23585,-0.449998 -1.22966,-2.403779 l -0.0622,0.03511 1.86201,9.381884 -1.96224,1.107926 z" />
      <path
         inkscape:connector-curvature="0"
         id="path4335"
         style="font-style:normal;font-variant:normal;font-weight:bold;font-stretch:normal;font-size:medium;line-height:125%;font-family:'Open Sans';-inkscape-font-specification:'Open Sans Bold';letter-spacing:-0.64999998px;word-spacing:0px;fill:#ffffff;fill-opacity:1;stroke:none;stroke-width:1px;stroke-linecap:butt;stroke-linejoin:miter;stroke-opacity:1"
         d="M 94.21292,39.492826 89.38266,28.945954 91.619,27.921753 96.44926,38.468625 94.21292,39.492826 Z" />
      <path
         inkscape:connector-curvature="0"
         id="path4337"
         style="font-style:normal;font-variant:normal;font-weight:bold;font-stretch:normal;font-size:medium;line-height:125%;font-family:'Open Sans';-inkscape-font-specification:'Open Sans Bold';letter-spacing:-0.64999998px;word-spacing:0px;fill:#ffffff;fill-opacity:1;stroke:none;stroke-width:1px;stroke-linecap:butt;stroke-linejoin:miter;stroke-opacity:1"
         d="m 104.7577,35.098575 -6.22392,2.428454 -4.21662,-10.80685 6.22392,-2.428453 0.73257,1.877524 -3.93245,1.534367 0.92581,2.372776 3.65895,-1.427654 0.73258,1.877524 -3.65896,1.427654 1.08733,2.786718 3.93245,-1.534367 0.73834,1.892307 z" />
      <path
         inkscape:connector-curvature="0"
         id="path4339"
         style="font-style:normal;font-variant:normal;font-weight:bold;font-stretch:normal;font-size:medium;line-height:125%;font-family:'Open Sans';-inkscape-font-specification:'Open Sans Bold';letter-spacing:-0.64999998px;word-spacing:0px;fill:#ffffff;fill-opacity:1;stroke:none;stroke-width:1px;stroke-linecap:butt;stroke-linejoin:miter;stroke-opacity:1"
         d="m 116.3133,31.610931 -3.00409,0.865267 -7.27814,-7.036081 -0.0686,0.01976 q 0.78833,2.192281 1.06285,3.145356 l 1.51092,5.245724 -2.11202,0.608323 -3.21071,-11.147164 2.98122,-0.858679 7.24636,6.954407 0.0534,-0.01537 q -0.74026,-2.140069 -0.9994,-3.039772 l -1.51971,-5.276223 2.12727,-0.612714 3.21071,11.147164 z" />
      <path
         inkscape:connector-curvature="0"
         id="path4341"
         style="font-style:normal;font-variant:normal;font-weight:bold;font-stretch:normal;font-size:medium;line-height:125%;font-family:'Open Sans';-inkscape-font-specification:'Open Sans Bold';letter-spacing:-0.64999998px;word-spacing:0px;fill:#ffffff;fill-opacity:1;stroke:none;stroke-width:1px;stroke-linecap:butt;stroke-linejoin:miter;stroke-opacity:1"
         d="m 122.93619,30.338239 -2.41674,0.457775 -1.77794,-9.38632 -3.09499,0.586248 -0.38099,-2.011354 8.60673,-1.63027 0.38099,2.011354 -3.095,0.586247 1.77794,9.38632 z" />
      <path
         inkscape:connector-curvature="0"
         id="path4343"
         style="font-style:normal;font-variant:normal;font-weight:bold;font-stretch:normal;font-size:medium;line-height:125%;font-family:'Open Sans';-inkscape-font-specification:'Open Sans Bold';letter-spacing:-0.64999998px;word-spacing:0px;fill:#ffffff;fill-opacity:1;stroke:none;stroke-width:1px;stroke-linecap:butt;stroke-linejoin:miter;stroke-opacity:1"
         d="m 137.10511,22.774064 q 0.2723,2.867349 -1.00326,4.542682 -1.27555,1.675333 -3.92962,1.927373 -2.65408,0.252041 -4.22218,-1.153249 -1.5681,-1.40529 -1.84189,-4.288437 -0.2738,-2.883147 1.00401,-4.534783 1.28495,-1.660285 3.94692,-1.913076 2.66198,-0.25279 4.21353,1.146101 1.55945,1.398141 1.83249,4.273389 z m -8.42827,0.800378 q 0.18378,1.935263 1.01141,2.844982 0.82762,0.909719 2.28894,0.770947 2.93055,-0.278295 2.56074,-4.172518 -0.37056,-3.902123 -3.28531,-3.625328 -1.46132,0.138772 -2.11006,1.196662 -0.6495,1.049992 -0.46572,2.985255 z" />
    </g>
  </a>
  <a
     id="a5570"
     xlink:href="http://equipo.reevo.org/projects/activismo"
     target="_parent"
     transform="matrix(2.0932124,0,0,2.0932124,-3.0787235e-6,0)">
    <g
       style="opacity:0.8;image-rendering:auto"
       transform="translate(-156.67972,-21.697266)"
       id="g4921">
      <path
         inkscape:connector-curvature="0"
         style="visibility:visible;fill:#980101;fill-opacity:1;stroke:none;stroke-width:2.29999995;stroke-linejoin:round;stroke-miterlimit:4;stroke-dasharray:none"
         d="m 301.12109,21.697266 0.01,47.199218 c 40.59332,0.707825 76.31562,26.960162 89.11523,65.488286 l 45.65039,-14.875 C 416.46603,61.45949 362.33496,22.175116 301.12109,21.697266 Z"
         id="path3792" />
      <path
         inkscape:connector-curvature="0"
         id="path4345"
         style="font-style:normal;font-variant:normal;font-weight:bold;font-stretch:normal;font-size:medium;line-height:125%;font-family:'Open Sans';-inkscape-font-specification:'Open Sans Bold';letter-spacing:-0.64999998px;word-spacing:0px;fill:#ffffff;fill-opacity:1;stroke:none;stroke-width:1px;stroke-linecap:butt;stroke-linejoin:miter;stroke-opacity:1"
         d="m 334.77881,55.824767 -0.0217,-2.886401 -4.05479,-1.201759 -1.59103,2.408403 -2.5409,-0.753073 7.23537,-10.004346 2.88324,0.854534 0.63076,12.335714 -2.5409,-0.753072 z m 0.002,-5.031193 q -0.0518,-3.929779 -0.0566,-4.444282 0.003,-0.512248 0.0232,-0.804155 -0.53965,0.899352 -2.86504,4.389393 l 2.89845,0.859044 z" />
      <path
         inkscape:connector-curvature="0"
         id="path4347"
         style="font-style:normal;font-variant:normal;font-weight:bold;font-stretch:normal;font-size:medium;line-height:125%;font-family:'Open Sans';-inkscape-font-specification:'Open Sans Bold';letter-spacing:-0.64999998px;word-spacing:0px;fill:#ffffff;fill-opacity:1;stroke:none;stroke-width:1px;stroke-linecap:butt;stroke-linejoin:miter;stroke-opacity:1"
         d="m 346.20544,49.684019 q -1.29184,-0.509157 -2.38455,0.185945 -1.0898,0.68772 -1.77352,2.422466 -1.42273,3.609748 1.28642,4.677522 1.13682,0.448058 2.97748,0.516824 l -0.75646,1.919294 q -1.54695,0.02994 -3.18573,-0.615963 -2.35483,-0.92812 -3.04084,-2.844526 -0.68311,-1.923787 0.37012,-4.596034 0.66336,-1.683073 1.77357,-2.703892 1.11313,-1.028201 2.52209,-1.248986 1.41924,-0.225258 2.96206,0.38282 1.57234,0.619716 2.85978,2.005587 l -1.47138,1.569292 q -0.49185,-0.526471 -1.02017,-0.982031 -0.52832,-0.455561 -1.11887,-0.688318 z" />
      <path
         inkscape:connector-curvature="0"
         id="path4349"
         style="font-style:normal;font-variant:normal;font-weight:bold;font-stretch:normal;font-size:medium;line-height:125%;font-family:'Open Sans';-inkscape-font-specification:'Open Sans Bold';letter-spacing:-0.64999998px;word-spacing:0px;fill:#ffffff;fill-opacity:1;stroke:none;stroke-width:1px;stroke-linecap:butt;stroke-linejoin:miter;stroke-opacity:1"
         d="m 351.05779,62.545677 -2.20881,-1.082299 4.20351,-8.578727 -2.82869,-1.386042 0.90075,-1.838298 7.86621,3.854384 -0.90076,1.838298 -2.8287,-1.386042 -4.20351,8.578726 z" />
      <path
         inkscape:connector-curvature="0"
         id="path4351"
         style="font-style:normal;font-variant:normal;font-weight:bold;font-stretch:normal;font-size:medium;line-height:125%;font-family:'Open Sans';-inkscape-font-specification:'Open Sans Bold';letter-spacing:-0.64999998px;word-spacing:0px;fill:#ffffff;fill-opacity:1;stroke:none;stroke-width:1px;stroke-linecap:butt;stroke-linejoin:miter;stroke-opacity:1"
         d="m 354.86307,64.551114 5.7117,-10.096753 2.1409,1.211099 -5.7117,10.096753 -2.1409,-1.211099 z" />
      <path
         inkscape:connector-curvature="0"
         id="path4353"
         style="font-style:normal;font-variant:normal;font-weight:bold;font-stretch:normal;font-size:medium;line-height:125%;font-family:'Open Sans';-inkscape-font-specification:'Open Sans Bold';letter-spacing:-0.64999998px;word-spacing:0px;fill:#ffffff;fill-opacity:1;stroke:none;stroke-width:1px;stroke-linecap:butt;stroke-linejoin:miter;stroke-opacity:1"
         d="m 370.88962,60.795666 2.07825,1.359689 -9.65097,7.548357 -2.24424,-1.46829 3.05767,-11.862001 2.07825,1.359688 -1.95339,6.971219 q -0.18177,0.611176 -0.46986,1.39933 -0.27709,0.785859 -0.41102,1.077514 0.47269,-0.563075 1.89677,-1.812204 l 5.61854,-4.573302 z" />
      <path
         inkscape:connector-curvature="0"
         id="path4355"
         style="font-style:normal;font-variant:normal;font-weight:bold;font-stretch:normal;font-size:medium;line-height:125%;font-family:'Open Sans';-inkscape-font-specification:'Open Sans Bold';letter-spacing:-0.64999998px;word-spacing:0px;fill:#ffffff;fill-opacity:1;stroke:none;stroke-width:1px;stroke-linecap:butt;stroke-linejoin:miter;stroke-opacity:1"
         d="m 367.2132,72.440369 6.96505,-9.276634 1.967,1.476859 -6.96505,9.276633 -1.967,-1.476858 z" />
      <path
         inkscape:connector-curvature="0"
         id="path4357"
         style="font-style:normal;font-variant:normal;font-weight:bold;font-stretch:normal;font-size:medium;line-height:125%;font-family:'Open Sans';-inkscape-font-specification:'Open Sans Bold';letter-spacing:-0.64999998px;word-spacing:0px;fill:#ffffff;fill-opacity:1;stroke:none;stroke-width:1px;stroke-linecap:butt;stroke-linejoin:miter;stroke-opacity:1"
         d="m 378.31027,77.260856 q -1.01398,1.200011 -2.46446,1.158607 -1.44442,-0.03628 -2.98383,-1.337045 -1.41819,-1.19834 -2.05845,-2.653478 l 1.47488,-1.745471 q 0.55898,1.157928 1.0389,1.84392 0.48598,0.691112 1.00113,1.126407 0.61819,0.522353 1.14519,0.562527 0.53306,0.0453 0.92739,-0.421375 0.2202,-0.260609 0.24374,-0.583517 0.0287,-0.328969 -0.0974,-0.757542 -0.12004,-0.423452 -0.63848,-1.567896 -0.48949,-1.068051 -0.59853,-1.762683 -0.10904,-0.694633 0.0429,-1.366149 0.15189,-0.671515 0.67937,-1.295763 0.9935,-1.175769 2.35589,-1.177636 1.36845,0.0033 2.77452,1.191351 0.69091,0.583807 1.17689,1.274919 0.49204,0.696234 0.92596,1.571892 l -1.84025,0.948508 q -0.46329,-0.890082 -0.83266,-1.39956 -0.36331,-0.504357 -0.81179,-0.88332 -0.53334,-0.450657 -1.02816,-0.442863 -0.49482,0.0078 -0.83281,0.407799 -0.20996,0.248487 -0.25357,0.533669 -0.0385,0.279121 0.0615,0.664846 0.11115,0.384785 0.67159,1.627046 0.74057,1.643773 0.69419,2.632983 -0.0413,0.983149 -0.77358,1.849824 z" />
      <path
         inkscape:connector-curvature="0"
         id="path4359"
         style="font-style:normal;font-variant:normal;font-weight:bold;font-stretch:normal;font-size:medium;line-height:125%;font-family:'Open Sans';-inkscape-font-specification:'Open Sans Bold';letter-spacing:-0.64999998px;word-spacing:0px;fill:#ffffff;fill-opacity:1;stroke:none;stroke-width:1px;stroke-linecap:butt;stroke-linejoin:miter;stroke-opacity:1"
         d="m 380.79147,84.164773 4.60546,-8.331732 -0.0496,-0.05136 q -1.89269,2.037822 -2.5604,2.68279 l -3.88073,3.748528 -1.52697,-1.580825 8.34356,-8.059337 2.32629,2.408333 -4.47303,8.137627 0.0331,0.03424 8.40347,-4.068572 2.32629,2.408334 -8.34356,8.059337 -1.59312,-1.649309 3.94921,-3.814679 q 0.27964,-0.270115 0.65039,-0.617211 0.37627,-0.341389 2.01754,-1.794367 l -0.0496,-0.05136 -8.61269,4.16034 -1.56556,-1.620774 z" />
      <path
         inkscape:connector-curvature="0"
         id="path4361"
         style="font-style:normal;font-variant:normal;font-weight:bold;font-stretch:normal;font-size:medium;line-height:125%;font-family:'Open Sans';-inkscape-font-specification:'Open Sans Bold';letter-spacing:-0.64999998px;word-spacing:0px;fill:#ffffff;fill-opacity:1;stroke:none;stroke-width:1px;stroke-linecap:butt;stroke-linejoin:miter;stroke-opacity:1"
         d="m 398.43332,96.200731 q -2.29326,1.742645 -4.38929,1.541624 -2.09604,-0.20102 -3.70906,-2.323704 -1.61303,-2.122684 -1.24524,-4.195967 0.3678,-2.073283 2.67369,-3.825529 2.30589,-1.752246 4.38297,-1.536823 2.0882,0.216939 3.70603,2.345941 1.61783,2.129001 1.24675,4.184848 -0.36628,2.062165 -2.66585,3.80961 z M 393.311,89.459947 q -1.54779,1.176165 -1.8847,2.358977 -0.33691,1.182812 0.55122,2.351552 1.78105,2.343796 4.89558,-0.02294 3.12085,-2.371532 1.3494,-4.702694 -0.88812,-1.168739 -2.12907,-1.162501 -1.23464,0.0014 -2.78243,1.177602 z" />
    </g>
  </a>
  <a
     id="a5668"
     xlink:href="http://equipo.reevo.org/projects/coordinacion-general"
     target="_parent"
     transform="matrix(2.0932124,0,0,2.0932124,-3.0787235e-6,0)">
    <g
       transform="translate(-156.67972,-21.697266)"
       id="g4972"
       style="opacity:0.8">
      <circle
         r="61.965813"
         cy="164.52991"
         cx="299.57266"
         id="circle3914"
         style="fill:#666666;fill-opacity:1" />
      <g
         style="font-style:normal;font-variant:normal;font-weight:bold;font-stretch:normal;font-size:11.83377171px;line-height:125%;font-family:'open sans';-inkscape-font-specification:'open sans Bold';text-align:center;letter-spacing:0px;word-spacing:0px;text-anchor:middle;opacity:0.8;fill:#ffffff;fill-opacity:1;stroke:none;stroke-width:1px;stroke-linecap:butt;stroke-linejoin:miter;stroke-opacity:1"
         id="text4201">
        <path
           inkscape:connector-curvature="0"
           d="m 280.82917,161.01254 -0.61249,-2.01081 -3.07978,0 -0.61249,2.01081 -1.92992,0 2.98155,-8.48241 2.18994,0 2.99312,8.48241 -1.92993,0 z m -1.04007,-3.51315 q -0.8494,-2.73309 -0.95919,-3.09134 -0.104,-0.35825 -0.15023,-0.56626 -0.19068,0.73961 -1.09208,3.6576 l 2.2015,0 z"
           id="path4934" />
        <path
           inkscape:connector-curvature="0"
           d="m 285.60775,156.31486 0.57782,0 q 0.8494,0 1.25387,-0.28313 0.40448,-0.28314 0.40448,-0.88985 0,-0.60093 -0.41603,-0.85517 -0.41026,-0.25424 -1.27699,-0.25424 l -0.54315,0 0,2.28239 z m 0,1.45611 0,3.24157 -1.79124,0 0,-8.44774 2.46151,0 q 1.72191,0 2.54819,0.62983 0.82629,0.62404 0.82629,1.90103 0,0.74539 -0.41025,1.32898 -0.41026,0.57783 -1.16142,0.90718 1.9068,2.84866 2.48463,3.68072 l -1.98771,0 -2.01659,-3.24157 -0.95341,0 z"
           id="path4936" />
        <path
           inkscape:connector-curvature="0"
           d="m 296.4939,161.01254 -4.86525,0 0,-8.44774 4.86525,0 0,1.46767 -3.07401,0 0,1.8548 2.86021,0 0,1.46767 -2.86021,0 0,2.17838 3.07401,0 0,1.47922 z"
           id="path4938" />
        <path
           inkscape:connector-curvature="0"
           d="m 303.43353,161.01254 -0.61249,-2.01081 -3.07979,0 -0.61249,2.01081 -1.92992,0 2.98155,-8.48241 2.18995,0 2.99311,8.48241 -1.92992,0 z m -1.04008,-3.51315 q -0.8494,-2.73309 -0.95918,-3.09134 -0.10401,-0.35825 -0.15024,-0.56626 -0.19068,0.73961 -1.09208,3.6576 l 2.2015,0 z"
           id="path4940" />
        <path
           inkscape:connector-curvature="0"
           d="m 316.50383,156.70778 q 0,2.08593 -1.19031,3.19535 -1.18453,1.10941 -3.42648,1.10941 l -2.39217,0 0,-8.44774 2.65219,0 q 2.0686,0 3.21269,1.09208 1.14408,1.09208 1.14408,3.0509 z m -1.86058,0.0462 q 0,-2.72153 -2.40374,-2.72153 l -0.9534,0 0,5.50085 0.7685,0 q 2.58864,0 2.58864,-2.77932 z"
           id="path4942" />
        <path
           inkscape:connector-curvature="0"
           d="m 323.11988,161.01254 -4.86525,0 0,-8.44774 4.86525,0 0,1.46767 -3.074,0 0,1.8548 2.86021,0 0,1.46767 -2.86021,0 0,2.17838 3.074,0 0,1.47922 z"
           id="path4944" />
        <path
           inkscape:connector-curvature="0"
           d="m 251.94969,168.72645 q -1.01119,0 -1.5659,0.76273 -0.55471,0.75694 -0.55471,2.11482 0,2.82554 2.12061,2.82554 0.88984,0 2.15527,-0.44492 l 0,1.50234 q -1.04008,0.43336 -2.32284,0.43336 -1.84325,0 -2.81977,-1.11519 -0.97652,-1.12098 -0.97652,-3.21269 0,-1.31743 0.4796,-2.3055 0.47959,-0.99385 1.37521,-1.51967 0.9014,-0.5316 2.10905,-0.5316 1.23075,0 2.47307,0.59516 l -0.57782,1.45611 q -0.47381,-0.22535 -0.95341,-0.39292 -0.47959,-0.16757 -0.94184,-0.16757 z"
           id="path4946" />
        <path
           inkscape:connector-curvature="0"
           d="m 263.56389,171.56933 q 0,2.09749 -1.04008,3.22424 -1.04008,1.12675 -2.98156,1.12675 -1.94148,0 -2.98155,-1.12675 -1.04008,-1.12675 -1.04008,-3.2358 0,-2.10904 1.04008,-3.21846 1.04585,-1.11519 2.99311,-1.11519 1.94725,0 2.97578,1.12097 1.0343,1.12097 1.0343,3.22424 z m -6.16535,0 q 0,1.41566 0.53737,2.13216 0.53737,0.7165 1.60634,0.7165 2.14372,0 2.14372,-2.84866 0,-2.85443 -2.13216,-2.85443 -1.06897,0 -1.61212,0.72227 -0.54315,0.7165 -0.54315,2.13216 z"
           id="path4948" />
        <path
           inkscape:connector-curvature="0"
           d="m 272.99392,171.56933 q 0,2.09749 -1.04008,3.22424 -1.04007,1.12675 -2.98155,1.12675 -1.94148,0 -2.98156,-1.12675 -1.04007,-1.12675 -1.04007,-3.2358 0,-2.10904 1.04007,-3.21846 1.04586,-1.11519 2.99312,-1.11519 1.94725,0 2.97577,1.12097 1.0343,1.12097 1.0343,3.22424 z m -6.16535,0 q 0,1.41566 0.53738,2.13216 0.53737,0.7165 1.60634,0.7165 2.14371,0 2.14371,-2.84866 0,-2.85443 -2.13215,-2.85443 -1.06897,0 -1.61213,0.72227 -0.54315,0.7165 -0.54315,2.13216 z"
           id="path4950" />
        <path
           inkscape:connector-curvature="0"
           d="m 276.54752,171.10707 0.57782,0 q 0.8494,0 1.25387,-0.28313 0.40448,-0.28313 0.40448,-0.88984 0,-0.60094 -0.41603,-0.85518 -0.41026,-0.25424 -1.27699,-0.25424 l -0.54315,0 0,2.28239 z m 0,1.45611 0,3.24158 -1.79124,0 0,-8.44774 2.46151,0 q 1.72191,0 2.54819,0.62982 0.82629,0.62405 0.82629,1.90103 0,0.74539 -0.41026,1.32899 -0.41025,0.57782 -1.16142,0.90718 1.90681,2.84866 2.48463,3.68072 l -1.9877,0 -2.0166,-3.24158 -0.9534,0 z"
           id="path4952" />
        <path
           inkscape:connector-curvature="0"
           d="m 289.57738,171.49999 q 0,2.08594 -1.19031,3.19535 -1.18453,1.10942 -3.42648,1.10942 l -2.39218,0 0,-8.44774 2.6522,0 q 2.0686,0 3.21269,1.09208 1.14408,1.09208 1.14408,3.05089 z m -1.86058,0.0462 q 0,-2.72154 -2.40374,-2.72154 l -0.9534,0 0,5.50086 0.7685,0 q 2.58864,0 2.58864,-2.77932 z"
           id="path4954" />
        <path
           inkscape:connector-curvature="0"
           d="m 291.32818,175.80476 0,-8.44774 1.79124,0 0,8.44774 -1.79124,0 z"
           id="path4956" />
        <path
           inkscape:connector-curvature="0"
           d="m 302.7517,175.80476 -2.27662,0 -3.67494,-6.3907 -0.052,0 q 0.10978,1.69301 0.10978,2.41529 l 0,3.97541 -1.60056,0 0,-8.44774 2.25928,0 3.66916,6.32713 0.0405,0 q -0.0867,-1.64678 -0.0867,-2.32861 l 0,-3.99852 1.61212,0 0,8.44774 z"
           id="path4958" />
        <path
           inkscape:connector-curvature="0"
           d="m 310.0438,175.80476 -0.61249,-2.01082 -3.07979,0 -0.61249,2.01082 -1.92992,0 2.98156,-8.48241 2.18994,0 2.99311,8.48241 -1.92992,0 z m -1.04008,-3.51315 q -0.8494,-2.7331 -0.95918,-3.09135 -0.10401,-0.35824 -0.15024,-0.56626 -0.19068,0.73961 -1.09208,3.65761 l 2.2015,0 z"
           id="path4960" />
        <path
           inkscape:connector-curvature="0"
           d="m 320.0401,171.49999 q 0,2.08594 -1.19031,3.19535 -1.18453,1.10942 -3.42648,1.10942 l -2.39218,0 0,-8.44774 2.6522,0 q 2.0686,0 3.21269,1.09208 1.14408,1.09208 1.14408,3.05089 z m -1.86058,0.0462 q 0,-2.72154 -2.40374,-2.72154 l -0.9534,0 0,5.50086 0.7685,0 q 2.58864,0 2.58864,-2.77932 z"
           id="path4962" />
        <path
           inkscape:connector-curvature="0"
           d="m 329.45857,171.56933 q 0,2.09749 -1.04007,3.22424 -1.04008,1.12675 -2.98156,1.12675 -1.94148,0 -2.98155,-1.12675 -1.04008,-1.12675 -1.04008,-3.2358 0,-2.10904 1.04008,-3.21846 1.04585,-1.11519 2.99311,-1.11519 1.94725,0 2.97578,1.12097 1.03429,1.12097 1.03429,3.22424 z m -6.16534,0 q 0,1.41566 0.53737,2.13216 0.53737,0.7165 1.60634,0.7165 2.14372,0 2.14372,-2.84866 0,-2.85443 -2.13216,-2.85443 -1.06897,0 -1.61212,0.72227 -0.54315,0.7165 -0.54315,2.13216 z"
           id="path4964" />
        <path
           inkscape:connector-curvature="0"
           d="m 333.01218,171.10707 0.57782,0 q 0.84939,0 1.25387,-0.28313 0.40447,-0.28313 0.40447,-0.88984 0,-0.60094 -0.41603,-0.85518 -0.41025,-0.25424 -1.27698,-0.25424 l -0.54315,0 0,2.28239 z m 0,1.45611 0,3.24158 -1.79125,0 0,-8.44774 2.46152,0 q 1.7219,0 2.54819,0.62982 0.82628,0.62405 0.82628,1.90103 0,0.74539 -0.41025,1.32899 -0.41025,0.57782 -1.16142,0.90718 1.90681,2.84866 2.48463,3.68072 l -1.98771,0 -2.01659,-3.24158 -0.9534,0 z"
           id="path4966" />
        <path
           inkscape:connector-curvature="0"
           d="m 343.89832,175.80476 -4.86525,0 0,-8.44774 4.86525,0 0,1.46766 -3.074,0 0,1.85481 2.86021,0 0,1.46766 -2.86021,0 0,2.17839 3.074,0 0,1.47922 z"
           id="path4968" />
        <path
           inkscape:connector-curvature="0"
           d="m 350.65305,173.4588 q 0,1.14409 -0.82628,1.80281 -0.82051,0.65871 -2.28817,0.65871 -1.3521,0 -2.39218,-0.50848 l 0,-1.66412 q 0.85517,0.38136 1.44455,0.53737 0.59516,0.15601 1.0863,0.15601 0.58938,0 0.9014,-0.22535 0.31781,-0.22535 0.31781,-0.67027 0,-0.24847 -0.13868,-0.43915 -0.13868,-0.19646 -0.41025,-0.37558 -0.2658,-0.17912 -1.09209,-0.57204 -0.77428,-0.36403 -1.16142,-0.69917 -0.38714,-0.33513 -0.61826,-0.78005 -0.23113,-0.44493 -0.23113,-1.04008 0,-1.12097 0.75694,-1.76236 0.76273,-0.64138 2.10327,-0.64138 0.65872,0 1.25387,0.15602 0.60094,0.15601 1.25387,0.43914 l -0.57782,1.39255 q -0.67605,-0.27736 -1.12097,-0.38714 -0.43914,-0.10979 -0.86673,-0.10979 -0.50848,0 -0.78006,0.23691 -0.27158,0.2369 -0.27158,0.61827 0,0.2369 0.10979,0.41603 0.10979,0.17334 0.34669,0.34091 0.24269,0.16179 1.13831,0.58938 1.18453,0.56626 1.62368,1.13831 0.43914,0.56626 0.43914,1.39254 z"
           id="path4970" />
      </g>
    </g>
  </a>
</svg>
